<svg width="414" height="135" viewBox="0 0 414 135" fill="none" xmlns="http://www.w3.org/2000/svg">
<g filter="url(#filter0_d)">
<path d="M0.875 49V3.5H14.875C18.875 3.5 22.4479 4.40625 25.5938 6.21875C28.7604 8.01042 31.2292 10.5729 33 13.9062C34.7708 17.2188 35.6562 20.9896 35.6562 25.2188V27.3125C35.6562 31.5417 34.7812 35.3021 33.0312 38.5938C31.3021 41.8854 28.8542 44.4375 25.6875 46.25C22.5208 48.0625 18.9479 48.9792 14.9688 49H0.875ZM10.25 11.0938V41.4688H14.7812C18.4479 41.4688 21.25 40.2708 23.1875 37.875C25.125 35.4792 26.1146 32.0521 26.1562 27.5938V25.1875C26.1562 20.5625 25.1979 17.0625 23.2812 14.6875C21.3646 12.2917 18.5625 11.0938 14.875 11.0938H10.25ZM57.4688 49.625C52.5104 49.625 48.4688 48.1042 45.3438 45.0625C42.2396 42.0208 40.6875 37.9688 40.6875 32.9062V32.0312C40.6875 28.6354 41.3438 25.6042 42.6562 22.9375C43.9688 20.25 45.8229 18.1875 48.2188 16.75C50.6354 15.2917 53.3854 14.5625 56.4688 14.5625C61.0938 14.5625 64.7292 16.0208 67.375 18.9375C70.0417 21.8542 71.375 25.9896 71.375 31.3438V35.0312H49.8438C50.1354 37.2396 51.0104 39.0104 52.4688 40.3438C53.9479 41.6771 55.8125 42.3438 58.0625 42.3438C61.5417 42.3438 64.2604 41.0833 66.2188 38.5625L70.6562 43.5312C69.3021 45.4479 67.4688 46.9479 65.1562 48.0312C62.8438 49.0938 60.2812 49.625 57.4688 49.625ZM56.4375 21.875C54.6458 21.875 53.1875 22.4792 52.0625 23.6875C50.9583 24.8958 50.25 26.625 49.9375 28.875H62.5V28.1562C62.4583 26.1562 61.9167 24.6146 60.875 23.5312C59.8333 22.4271 58.3542 21.875 56.4375 21.875ZM86.0625 49H77V15.1875H86.0625V49ZM76.4688 6.4375C76.4688 5.08333 76.9167 3.96875 77.8125 3.09375C78.7292 2.21875 79.9688 1.78125 81.5312 1.78125C83.0729 1.78125 84.3021 2.21875 85.2188 3.09375C86.1354 3.96875 86.5938 5.08333 86.5938 6.4375C86.5938 7.8125 86.125 8.9375 85.1875 9.8125C84.2708 10.6875 83.0521 11.125 81.5312 11.125C80.0104 11.125 78.7812 10.6875 77.8438 9.8125C76.9271 8.9375 76.4688 7.8125 76.4688 6.4375ZM101.844 15.1875L102.125 19.0938C104.542 16.0729 107.781 14.5625 111.844 14.5625C115.427 14.5625 118.094 15.6146 119.844 17.7188C121.594 19.8229 122.49 22.9688 122.531 27.1562V49H113.5V27.375C113.5 25.4583 113.083 24.0729 112.25 23.2188C111.417 22.3438 110.031 21.9062 108.094 21.9062C105.552 21.9062 103.646 22.9896 102.375 25.1562V49H93.3438V15.1875H101.844ZM158.188 3.5L169.875 36.5L181.5 3.5H193.812V49H184.406V36.5625L185.344 15.0938L173.062 49H166.625L154.375 15.125L155.312 36.5625V49H145.938V3.5H158.188ZM200 31.7812C200 28.4271 200.646 25.4375 201.938 22.8125C203.229 20.1875 205.083 18.1562 207.5 16.7188C209.938 15.2812 212.76 14.5625 215.969 14.5625C220.531 14.5625 224.25 15.9583 227.125 18.75C230.021 21.5417 231.635 25.3333 231.969 30.125L232.031 32.4375C232.031 37.625 230.583 41.7917 227.688 44.9375C224.792 48.0625 220.906 49.625 216.031 49.625C211.156 49.625 207.26 48.0625 204.344 44.9375C201.448 41.8125 200 37.5625 200 32.1875V31.7812ZM209.031 32.4375C209.031 35.6458 209.635 38.1042 210.844 39.8125C212.052 41.5 213.781 42.3438 216.031 42.3438C218.219 42.3438 219.927 41.5104 221.156 39.8438C222.385 38.1562 223 35.4688 223 31.7812C223 28.6354 222.385 26.1979 221.156 24.4688C219.927 22.7396 218.198 21.875 215.969 21.875C213.76 21.875 212.052 22.7396 210.844 24.4688C209.635 26.1771 209.031 28.8333 209.031 32.4375ZM248.406 6.875V15.1875H254.188V21.8125H248.406V38.6875C248.406 39.9375 248.646 40.8333 249.125 41.375C249.604 41.9167 250.521 42.1875 251.875 42.1875C252.875 42.1875 253.76 42.1146 254.531 41.9688V48.8125C252.76 49.3542 250.938 49.625 249.062 49.625C242.729 49.625 239.5 46.4271 239.375 40.0312V21.8125H234.438V15.1875H239.375V6.875H248.406ZM256.875 31.7812C256.875 28.4271 257.521 25.4375 258.812 22.8125C260.104 20.1875 261.958 18.1562 264.375 16.7188C266.812 15.2812 269.635 14.5625 272.844 14.5625C277.406 14.5625 281.125 15.9583 284 18.75C286.896 21.5417 288.51 25.3333 288.844 30.125L288.906 32.4375C288.906 37.625 287.458 41.7917 284.562 44.9375C281.667 48.0625 277.781 49.625 272.906 49.625C268.031 49.625 264.135 48.0625 261.219 44.9375C258.323 41.8125 256.875 37.5625 256.875 32.1875V31.7812ZM265.906 32.4375C265.906 35.6458 266.51 38.1042 267.719 39.8125C268.927 41.5 270.656 42.3438 272.906 42.3438C275.094 42.3438 276.802 41.5104 278.031 39.8438C279.26 38.1562 279.875 35.4688 279.875 31.7812C279.875 28.6354 279.26 26.1979 278.031 24.4688C276.802 22.7396 275.073 21.875 272.844 21.875C270.635 21.875 268.927 22.7396 267.719 24.4688C266.51 26.1771 265.906 28.8333 265.906 32.4375ZM313.469 23.6562C312.24 23.4896 311.156 23.4062 310.219 23.4062C306.802 23.4062 304.562 24.5625 303.5 26.875V49H294.469V15.1875H303L303.25 19.2188C305.062 16.1146 307.573 14.5625 310.781 14.5625C311.781 14.5625 312.719 14.6979 313.594 14.9688L313.469 23.6562ZM336.844 23.6562C335.615 23.4896 334.531 23.4062 333.594 23.4062C330.177 23.4062 327.938 24.5625 326.875 26.875V49H317.844V15.1875H326.375L326.625 19.2188C328.438 16.1146 330.948 14.5625 334.156 14.5625C335.156 14.5625 336.094 14.6979 336.969 14.9688L336.844 23.6562ZM359.875 49C359.458 48.1875 359.156 47.1771 358.969 45.9688C356.781 48.4062 353.938 49.625 350.438 49.625C347.125 49.625 344.375 48.6667 342.188 46.75C340.021 44.8333 338.938 42.4167 338.938 39.5C338.938 35.9167 340.26 33.1667 342.906 31.25C345.573 29.3333 349.417 28.3646 354.438 28.3438H358.594V26.4062C358.594 24.8438 358.188 23.5938 357.375 22.6562C356.583 21.7188 355.323 21.25 353.594 21.25C352.073 21.25 350.875 21.6146 350 22.3438C349.146 23.0729 348.719 24.0729 348.719 25.3438H339.688C339.688 23.3854 340.292 21.5729 341.5 19.9062C342.708 18.2396 344.417 16.9375 346.625 16C348.833 15.0417 351.312 14.5625 354.062 14.5625C358.229 14.5625 361.531 15.6146 363.969 17.7188C366.427 19.8021 367.656 22.7396 367.656 26.5312V41.1875C367.677 44.3958 368.125 46.8229 369 48.4688V49H359.875ZM352.406 42.7188C353.74 42.7188 354.969 42.4271 356.094 41.8438C357.219 41.2396 358.052 40.4375 358.594 39.4375V33.625H355.219C350.698 33.625 348.292 35.1875 348 38.3125L347.969 38.8438C347.969 39.9688 348.365 40.8958 349.156 41.625C349.948 42.3542 351.031 42.7188 352.406 42.7188ZM373.188 31.8438C373.188 26.5729 374.365 22.375 376.719 19.25C379.094 16.125 382.333 14.5625 386.438 14.5625C389.729 14.5625 392.448 15.7917 394.594 18.25V1H403.656V49H395.5L395.062 45.4062C392.812 48.2188 389.917 49.625 386.375 49.625C382.396 49.625 379.198 48.0625 376.781 44.9375C374.385 41.7917 373.188 37.4271 373.188 31.8438ZM382.219 32.5C382.219 35.6667 382.771 38.0938 383.875 39.7812C384.979 41.4688 386.583 42.3125 388.688 42.3125C391.479 42.3125 393.448 41.1354 394.594 38.7812V25.4375C393.469 23.0833 391.521 21.9062 388.75 21.9062C384.396 21.9062 382.219 25.4375 382.219 32.5ZM132.125 105.406H114.125V124H104.75V78.5H134.375V86.0938H114.125V97.8438H132.125V105.406ZM137.125 106.781C137.125 103.427 137.771 100.438 139.062 97.8125C140.354 95.1875 142.208 93.1562 144.625 91.7188C147.062 90.2812 149.885 89.5625 153.094 89.5625C157.656 89.5625 161.375 90.9583 164.25 93.75C167.146 96.5417 168.76 100.333 169.094 105.125L169.156 107.438C169.156 112.625 167.708 116.792 164.812 119.938C161.917 123.062 158.031 124.625 153.156 124.625C148.281 124.625 144.385 123.062 141.469 119.938C138.573 116.812 137.125 112.562 137.125 107.188V106.781ZM146.156 107.438C146.156 110.646 146.76 113.104 147.969 114.812C149.177 116.5 150.906 117.344 153.156 117.344C155.344 117.344 157.052 116.51 158.281 114.844C159.51 113.156 160.125 110.469 160.125 106.781C160.125 103.635 159.51 101.198 158.281 99.4688C157.052 97.7396 155.323 96.875 153.094 96.875C150.885 96.875 149.177 97.7396 147.969 99.4688C146.76 101.177 146.156 103.833 146.156 107.438ZM193.719 98.6562C192.49 98.4896 191.406 98.4062 190.469 98.4062C187.052 98.4062 184.812 99.5625 183.75 101.875V124H174.719V90.1875H183.25L183.5 94.2188C185.312 91.1146 187.823 89.5625 191.031 89.5625C192.031 89.5625 192.969 89.6979 193.844 89.9688L193.719 98.6562ZM218.344 120.562C216.115 123.271 213.031 124.625 209.094 124.625C205.469 124.625 202.698 123.583 200.781 121.5C198.885 119.417 197.917 116.365 197.875 112.344V90.1875H206.906V112.031C206.906 115.552 208.51 117.312 211.719 117.312C214.781 117.312 216.885 116.25 218.031 114.125V90.1875H227.094V124H218.594L218.344 120.562ZM242.375 90.1875L242.656 93.9688C245.052 91.0312 248.292 89.5625 252.375 89.5625C256.729 89.5625 259.719 91.2812 261.344 94.7188C263.719 91.2812 267.104 89.5625 271.5 89.5625C275.167 89.5625 277.896 90.6354 279.688 92.7812C281.479 94.9062 282.375 98.1146 282.375 102.406V124H273.312V102.438C273.312 100.521 272.938 99.125 272.188 98.25C271.438 97.3542 270.115 96.9062 268.219 96.9062C265.51 96.9062 263.635 98.1979 262.594 100.781L262.625 124H253.594V102.469C253.594 100.51 253.208 99.0938 252.438 98.2188C251.667 97.3438 250.354 96.9062 248.5 96.9062C245.938 96.9062 244.083 97.9688 242.938 100.094V124H233.906V90.1875H242.375ZM298.531 110.031H291.031L289.969 78.5H299.594L298.531 110.031ZM294.781 114.969C296.302 114.969 297.521 115.417 298.438 116.312C299.375 117.208 299.844 118.354 299.844 119.75C299.844 121.125 299.375 122.26 298.438 123.156C297.521 124.052 296.302 124.5 294.781 124.5C293.281 124.5 292.062 124.052 291.125 123.156C290.208 122.26 289.75 121.125 289.75 119.75C289.75 118.375 290.208 117.24 291.125 116.344C292.062 115.427 293.281 114.969 294.781 114.969Z" fill="#F2994A"/>
<path d="M0.875 49H0.375V49.5H0.875V49ZM0.875 3.5V3H0.375V3.5H0.875ZM25.5938 6.21875L25.3441 6.652L25.3475 6.65392L25.5938 6.21875ZM33 13.9062L32.5584 14.1408L32.5591 14.142L33 13.9062ZM33.0312 38.5938L32.5898 38.359L32.5886 38.3612L33.0312 38.5938ZM14.9688 49V49.5L14.9714 49.5L14.9688 49ZM10.25 11.0938V10.5938H9.75V11.0938H10.25ZM10.25 41.4688H9.75V41.9688H10.25V41.4688ZM26.1562 27.5938L26.6562 27.5984V27.5938H26.1562ZM23.2812 14.6875L22.8908 14.9999L22.8922 15.0015L23.2812 14.6875ZM1.375 49V3.5H0.375V49H1.375ZM0.875 4H14.875V3H0.875V4ZM14.875 4C18.7965 4 22.2818 4.88758 25.3441 6.65199L25.8434 5.78551C22.6141 3.92492 18.9535 3 14.875 3V4ZM25.3475 6.65392C28.4281 8.39688 30.8305 10.8883 32.5584 14.1408L33.4416 13.6717C31.6278 10.2575 29.0927 7.62395 25.84 5.78358L25.3475 6.65392ZM32.5591 14.142C34.2865 17.3732 35.1562 21.0613 35.1562 25.2188H36.1562C36.1562 20.9178 35.2552 17.0643 33.4409 13.6705L32.5591 14.142ZM35.1562 25.2188V27.3125H36.1562V25.2188H35.1562ZM35.1562 27.3125C35.1562 31.4709 34.2964 35.1489 32.5898 38.359L33.4727 38.8285C35.2661 35.4553 36.1562 31.6124 36.1562 27.3125H35.1562ZM32.5886 38.3612C30.9028 41.5703 28.5215 44.0518 25.4391 45.8161L25.9359 46.6839C29.1868 44.8232 31.7014 42.2005 33.4739 38.8263L32.5886 38.3612ZM25.4391 45.8161C22.354 47.5819 18.8671 48.4796 14.9661 48.5L14.9714 49.5C19.0287 49.4788 22.6877 48.5431 25.9359 46.6839L25.4391 45.8161ZM14.9688 48.5H0.875V49.5H14.9688V48.5ZM9.75 11.0938V41.4688H10.75V11.0938H9.75ZM10.25 41.9688H14.7812V40.9688H10.25V41.9688ZM14.7812 41.9688C18.567 41.9688 21.5255 40.7254 23.5763 38.1894L22.7987 37.5606C20.9745 39.8163 18.3288 40.9688 14.7812 40.9688V41.9688ZM23.5763 38.1894C25.6104 35.6741 26.614 32.1206 26.6562 27.5984L25.6563 27.5891C25.6152 31.9835 24.6396 35.2842 22.7987 37.5606L23.5763 38.1894ZM26.6562 27.5938V25.1875H25.6562V27.5938H26.6562ZM26.6562 25.1875C26.6562 20.5045 25.6875 16.8731 23.6703 14.3735L22.8922 15.0015C24.7083 17.2519 25.6562 20.6205 25.6562 25.1875H26.6562ZM23.6717 14.3752C21.6407 11.8365 18.6803 10.5938 14.875 10.5938V11.5938C18.4447 11.5938 21.0884 12.7469 22.8908 14.9998L23.6717 14.3752ZM14.875 10.5938H10.25V11.5938H14.875V10.5938ZM45.3438 45.0625L44.9938 45.4196L44.995 45.4208L45.3438 45.0625ZM42.6562 22.9375L43.1049 23.1583L43.1055 23.1569L42.6562 22.9375ZM48.2188 16.75L48.476 17.1787L48.4771 17.1781L48.2188 16.75ZM67.375 18.9375L67.0047 19.2734L67.006 19.2749L67.375 18.9375ZM71.375 35.0312V35.5312H71.875V35.0312H71.375ZM49.8438 35.0312V34.5312H49.2734L49.3481 35.0967L49.8438 35.0312ZM52.4688 40.3438L52.1314 40.7128L52.134 40.7151L52.4688 40.3438ZM66.2188 38.5625L66.5917 38.2294L66.192 37.7819L65.8239 38.2558L66.2188 38.5625ZM70.6562 43.5312L71.0646 43.8198L71.2941 43.4949L71.0292 43.1982L70.6562 43.5312ZM65.1562 48.0312L65.365 48.4856L65.3684 48.484L65.1562 48.0312ZM52.0625 23.6875L51.6965 23.3468L51.6934 23.3502L52.0625 23.6875ZM49.9375 28.875L49.4423 28.8062L49.3633 29.375H49.9375V28.875ZM62.5 28.875V29.375H63V28.875H62.5ZM62.5 28.1562H63.0001L62.9999 28.1458L62.5 28.1562ZM60.875 23.5312L60.5113 23.8744L60.5146 23.8778L60.875 23.5312ZM57.4688 49.125C52.6213 49.125 48.7111 47.6424 45.6925 44.7042L44.995 45.4208C48.2264 48.566 52.3995 50.125 57.4688 50.125V49.125ZM45.6937 44.7054C42.7014 41.7733 41.1875 37.8584 41.1875 32.9062H40.1875C40.1875 38.0791 41.7778 42.2683 44.9938 45.4196L45.6937 44.7054ZM41.1875 32.9062V32.0312H40.1875V32.9062H41.1875ZM41.1875 32.0312C41.1875 28.701 41.8307 25.7471 43.1049 23.1583L42.2076 22.7167C40.8568 25.4613 40.1875 28.5698 40.1875 32.0312H41.1875ZM43.1055 23.1569C44.3787 20.5499 46.169 18.563 48.476 17.1787L47.9615 16.3213C45.4769 17.812 43.5588 19.9501 42.207 22.7181L43.1055 23.1569ZM48.4771 17.1781C50.8087 15.7711 53.4678 15.0625 56.4688 15.0625V14.0625C53.3031 14.0625 50.4622 14.8122 47.9604 16.3219L48.4771 17.1781ZM56.4688 15.0625C60.9796 15.0625 64.4703 16.4797 67.0047 19.2734L67.7453 18.6016C64.988 15.562 61.2079 14.0625 56.4688 14.0625V15.0625ZM67.006 19.2749C69.5623 22.0709 70.875 26.0695 70.875 31.3438H71.875C71.875 25.9096 70.521 21.6374 67.744 18.6001L67.006 19.2749ZM70.875 31.3438V35.0312H71.875V31.3438H70.875ZM71.375 34.5312H49.8438V35.5312H71.375V34.5312ZM49.3481 35.0967C49.653 37.4059 50.5751 39.2899 52.1314 40.7128L52.8061 39.9747C51.4457 38.7309 50.6178 37.0732 50.3394 34.9658L49.3481 35.0967ZM52.134 40.7151C53.717 42.1421 55.7061 42.8438 58.0625 42.8438V41.8438C55.9189 41.8438 54.1788 41.212 52.8035 39.9724L52.134 40.7151ZM58.0625 42.8438C61.6801 42.8438 64.5512 41.5241 66.6136 38.8692L65.8239 38.2558C63.9697 40.6426 61.4032 41.8438 58.0625 41.8438V42.8438ZM65.8458 38.8956L70.2833 43.8643L71.0292 43.1982L66.5917 38.2294L65.8458 38.8956ZM70.2479 43.2427C68.9481 45.0824 67.1852 46.5286 64.9441 47.5785L65.3684 48.484C67.7523 47.3672 69.656 45.8134 71.0646 43.8198L70.2479 43.2427ZM64.9475 47.5769C62.7071 48.6063 60.2168 49.125 57.4688 49.125V50.125C60.3457 50.125 62.9804 49.5812 65.365 48.4856L64.9475 47.5769ZM56.4375 21.375C54.5202 21.375 52.9248 22.0276 51.6966 23.3468L52.4284 24.0282C53.4502 22.9307 54.7714 22.375 56.4375 22.375V21.375ZM51.6934 23.3502C50.4992 24.6571 49.7634 26.4937 49.4423 28.8062L50.4327 28.9438C50.7366 26.7563 51.4175 25.1346 52.4316 24.0248L51.6934 23.3502ZM49.9375 29.375H62.5V28.375H49.9375V29.375ZM63 28.875V28.1562H62V28.875H63ZM62.9999 28.1458C62.9565 26.0627 62.3897 24.3851 61.2354 23.1847L60.5146 23.8778C61.4436 24.844 61.9602 26.2498 62.0001 28.1667L62.9999 28.1458ZM61.2387 23.1881C60.0791 21.959 58.4534 21.375 56.4375 21.375V22.375C58.2549 22.375 59.5876 22.8952 60.5113 23.8744L61.2387 23.1881ZM86.0625 49V49.5H86.5625V49H86.0625ZM77 49H76.5V49.5H77V49ZM77 15.1875V14.6875H76.5V15.1875H77ZM86.0625 15.1875H86.5625V14.6875H86.0625V15.1875ZM77.8125 3.09375L77.4672 2.73205L77.4631 2.73606L77.8125 3.09375ZM85.1875 9.8125L84.8463 9.44695L84.8423 9.45082L85.1875 9.8125ZM77.8438 9.8125L77.4985 10.1742L77.5026 10.178L77.8438 9.8125ZM86.0625 48.5H77V49.5H86.0625V48.5ZM77.5 49V15.1875H76.5V49H77.5ZM77 15.6875H86.0625V14.6875H77V15.6875ZM85.5625 15.1875V49H86.5625V15.1875H85.5625ZM76.9688 6.4375C76.9688 5.20584 77.3707 4.2242 78.1619 3.45144L77.4631 2.73606C76.4626 3.7133 75.9688 4.96083 75.9688 6.4375H76.9688ZM78.1577 3.45543C78.9608 2.68884 80.0658 2.28125 81.5312 2.28125V1.28125C79.8717 1.28125 78.4975 1.74866 77.4673 2.73207L78.1577 3.45543ZM81.5312 2.28125C82.9738 2.28125 84.0692 2.68766 84.8735 3.45543L85.564 2.73207C84.535 1.74984 83.172 1.28125 81.5312 1.28125V2.28125ZM84.8735 3.45543C85.684 4.22909 86.0938 5.20952 86.0938 6.4375H87.0938C87.0938 4.95715 86.5868 3.70841 85.564 2.73207L84.8735 3.45543ZM86.0938 6.4375C86.0938 7.68511 85.6746 8.67391 84.8463 9.44697L85.5287 10.178C86.5754 9.20109 87.0938 7.93989 87.0938 6.4375H86.0938ZM84.8423 9.45082C84.0367 10.2198 82.9508 10.625 81.5312 10.625V11.625C83.1533 11.625 84.505 11.1552 85.5327 10.1742L84.8423 9.45082ZM81.5312 10.625C80.112 10.625 79.013 10.2199 78.1849 9.44697L77.5026 10.178C78.5495 11.1551 79.9088 11.625 81.5312 11.625V10.625ZM78.189 9.45082C77.3801 8.67873 76.9688 7.68877 76.9688 6.4375H75.9688C75.9688 7.93623 76.474 9.19627 77.4985 10.1742L78.189 9.45082ZM101.844 15.1875L102.342 15.1516L102.309 14.6875H101.844V15.1875ZM102.125 19.0938L101.626 19.1297L101.718 20.4029L102.515 19.4061L102.125 19.0938ZM119.844 17.7188L120.228 17.399L119.844 17.7188ZM122.531 27.1562H123.031L123.031 27.1513L122.531 27.1562ZM122.531 49V49.5H123.031V49H122.531ZM113.5 49H113V49.5H113.5V49ZM112.25 23.2188L111.888 23.5636L111.892 23.5679L112.25 23.2188ZM102.375 25.1562L101.944 24.9033L101.875 25.0204V25.1562H102.375ZM102.375 49V49.5H102.875V49H102.375ZM93.3438 49H92.8438V49.5H93.3438V49ZM93.3438 15.1875V14.6875H92.8438V15.1875H93.3438ZM101.345 15.2234L101.626 19.1297L102.624 19.0578L102.342 15.1516L101.345 15.2234ZM102.515 19.4061C104.832 16.5106 107.924 15.0625 111.844 15.0625V14.0625C107.638 14.0625 104.251 15.6353 101.735 18.7814L102.515 19.4061ZM111.844 15.0625C115.328 15.0625 117.832 16.0816 119.459 18.0385L120.228 17.399C118.356 15.1475 115.526 14.0625 111.844 14.0625V15.0625ZM119.459 18.0385C121.106 20.0179 121.99 23.0307 122.031 27.1612L123.031 27.1513C122.989 22.9068 122.082 19.6279 120.228 17.399L119.459 18.0385ZM122.031 27.1562V49H123.031V27.1562H122.031ZM122.531 48.5H113.5V49.5H122.531V48.5ZM114 49V27.375H113V49H114ZM114 27.375C114 25.4036 113.574 23.8601 112.608 22.8696L111.892 23.5679C112.592 24.2858 113 25.5131 113 27.375H114ZM112.612 22.8739C111.641 21.8539 110.088 21.4062 108.094 21.4062V22.4062C109.974 22.4062 111.193 22.8336 111.888 23.5636L112.612 22.8739ZM108.094 21.4062C105.377 21.4062 103.306 22.5814 101.944 24.9033L102.806 25.4092C103.986 23.3978 105.727 22.4062 108.094 22.4062V21.4062ZM101.875 25.1562V49H102.875V25.1562H101.875ZM102.375 48.5H93.3438V49.5H102.375V48.5ZM93.8438 49V15.1875H92.8438V49H93.8438ZM93.3438 15.6875H101.844V14.6875H93.3438V15.6875ZM158.188 3.5L158.659 3.33308L158.541 3H158.188V3.5ZM169.875 36.5L169.404 36.6669L169.876 38.0013L170.347 36.6661L169.875 36.5ZM181.5 3.5V3H181.146L181.028 3.33387L181.5 3.5ZM193.812 3.5H194.312V3H193.812V3.5ZM193.812 49V49.5H194.312V49H193.812ZM184.406 49H183.906V49.5H184.406V49ZM184.406 36.5625L183.907 36.5407L183.906 36.5516V36.5625H184.406ZM185.344 15.0938L185.843 15.1156L184.874 14.9235L185.344 15.0938ZM173.062 49V49.5H173.413L173.533 49.1703L173.062 49ZM166.625 49L166.155 49.17L166.274 49.5H166.625V49ZM154.375 15.125L154.845 14.955L153.875 15.1468L154.375 15.125ZM155.312 36.5625H155.812V36.5516L155.812 36.5407L155.312 36.5625ZM155.312 49V49.5H155.812V49H155.312ZM145.938 49H145.438V49.5H145.938V49ZM145.938 3.5V3H145.438V3.5H145.938ZM157.716 3.66692L169.404 36.6669L170.346 36.3331L158.659 3.33308L157.716 3.66692ZM170.347 36.6661L181.972 3.66613L181.028 3.33387L169.403 36.3339L170.347 36.6661ZM181.5 4H193.812V3H181.5V4ZM193.312 3.5V49H194.312V3.5H193.312ZM193.812 48.5H184.406V49.5H193.812V48.5ZM184.906 49V36.5625H183.906V49H184.906ZM184.906 36.5843L185.843 15.1156L184.844 15.0719L183.907 36.5407L184.906 36.5843ZM184.874 14.9235L172.592 48.8297L173.533 49.1703L185.814 15.264L184.874 14.9235ZM173.062 48.5H166.625V49.5H173.062V48.5ZM167.095 48.83L154.845 14.955L153.905 15.295L166.155 49.17L167.095 48.83ZM153.875 15.1468L154.813 36.5843L155.812 36.5407L154.875 15.1032L153.875 15.1468ZM154.812 36.5625V49H155.812V36.5625H154.812ZM155.312 48.5H145.938V49.5H155.312V48.5ZM146.438 49V3.5H145.438V49H146.438ZM145.938 4H158.188V3H145.938V4ZM201.938 22.8125L201.489 22.5917L201.938 22.8125ZM207.5 16.7188L207.246 16.2881L207.244 16.289L207.5 16.7188ZM227.125 18.75L226.777 19.1087L226.778 19.11L227.125 18.75ZM231.969 30.125L232.469 30.1115L232.468 30.1009L232.468 30.0903L231.969 30.125ZM232.031 32.4375H232.531L232.531 32.424L232.031 32.4375ZM227.688 44.9375L228.054 45.2774L228.055 45.2761L227.688 44.9375ZM204.344 44.9375L203.977 45.2774L203.978 45.2787L204.344 44.9375ZM210.844 39.8125L210.436 40.1012L210.437 40.1036L210.844 39.8125ZM221.156 39.8438L221.559 40.1405L221.56 40.1381L221.156 39.8438ZM210.844 24.4688L211.252 24.7575L211.254 24.7551L210.844 24.4688ZM200.5 31.7812C200.5 28.4924 201.133 25.5802 202.386 23.0333L201.489 22.5917C200.159 25.2948 199.5 28.3618 199.5 31.7812H200.5ZM202.386 23.0333C203.637 20.4914 205.426 18.5344 207.756 17.1485L207.244 16.289C204.741 17.7781 202.821 19.8836 201.489 22.5917L202.386 23.0333ZM207.754 17.1494C210.105 15.7631 212.838 15.0625 215.969 15.0625V14.0625C212.683 14.0625 209.77 14.7994 207.246 16.2881L207.754 17.1494ZM215.969 15.0625C220.421 15.0625 224.008 16.4204 226.777 19.1087L227.473 18.3913C224.492 15.4963 220.642 14.0625 215.969 14.0625V15.0625ZM226.778 19.11C229.568 21.7996 231.143 25.4662 231.47 30.1597L232.468 30.0903C232.127 25.2005 230.474 21.2837 227.472 18.39L226.778 19.11ZM231.469 30.1385L231.531 32.451L232.531 32.424L232.469 30.1115L231.469 30.1385ZM231.531 32.4375C231.531 37.5277 230.113 41.5642 227.32 44.5989L228.055 45.2761C231.053 42.0192 232.531 37.7223 232.531 32.4375H231.531ZM227.321 44.5976C224.534 47.6054 220.789 49.125 216.031 49.125V50.125C221.023 50.125 225.05 48.5196 228.054 45.2774L227.321 44.5976ZM216.031 49.125C211.273 49.125 207.518 47.6054 204.709 44.5963L203.978 45.2787C207.003 48.5196 211.039 50.125 216.031 50.125V49.125ZM204.71 44.5976C201.921 41.5875 200.5 37.4708 200.5 32.1875H199.5C199.5 37.6542 200.975 42.0375 203.977 45.2774L204.71 44.5976ZM200.5 32.1875V31.7812H199.5V32.1875H200.5ZM208.531 32.4375C208.531 35.6976 209.143 38.2743 210.436 40.1012L211.252 39.5238C210.127 37.934 209.531 35.594 209.531 32.4375H208.531ZM210.437 40.1036C211.748 41.9346 213.636 42.8438 216.031 42.8438V41.8438C213.927 41.8438 212.356 41.0654 211.25 39.5214L210.437 40.1036ZM216.031 42.8438C218.367 42.8438 220.229 41.9432 221.559 40.1405L220.754 39.547C219.625 41.0776 218.07 41.8438 216.031 41.8438V42.8438ZM221.56 40.1381C222.884 38.3212 223.5 35.5029 223.5 31.7812H222.5C222.5 35.4346 221.887 37.9913 220.752 39.5494L221.56 40.1381ZM223.5 31.7812C223.5 28.5792 222.876 26.0248 221.564 24.1791L220.749 24.7584C221.895 26.3711 222.5 28.6917 222.5 31.7812H223.5ZM221.564 24.1791C220.235 22.3102 218.35 21.375 215.969 21.375V22.375C218.046 22.375 219.619 23.1689 220.749 24.7584L221.564 24.1791ZM215.969 21.375C213.606 21.375 211.741 22.3121 210.434 24.1824L211.254 24.7551C212.363 23.1671 213.915 22.375 215.969 22.375V21.375ZM210.436 24.18C209.138 26.0144 208.531 28.7965 208.531 32.4375H209.531C209.531 28.8702 210.133 26.3397 211.252 24.7575L210.436 24.18ZM248.406 6.875H248.906V6.375H248.406V6.875ZM248.406 15.1875H247.906V15.6875H248.406V15.1875ZM254.188 15.1875H254.688V14.6875H254.188V15.1875ZM254.188 21.8125V22.3125H254.688V21.8125H254.188ZM248.406 21.8125V21.3125H247.906V21.8125H248.406ZM249.125 41.375L249.499 41.0437L249.125 41.375ZM254.531 41.9688H255.031V41.3653L254.438 41.4775L254.531 41.9688ZM254.531 48.8125L254.677 49.2906L255.031 49.1824V48.8125H254.531ZM239.375 40.0312H238.875L238.875 40.041L239.375 40.0312ZM239.375 21.8125H239.875V21.3125H239.375V21.8125ZM234.438 21.8125H233.938V22.3125H234.438V21.8125ZM234.438 15.1875V14.6875H233.938V15.1875H234.438ZM239.375 15.1875V15.6875H239.875V15.1875H239.375ZM239.375 6.875V6.375H238.875V6.875H239.375ZM247.906 6.875V15.1875H248.906V6.875H247.906ZM248.406 15.6875H254.188V14.6875H248.406V15.6875ZM253.688 15.1875V21.8125H254.688V15.1875H253.688ZM254.188 21.3125H248.406V22.3125H254.188V21.3125ZM247.906 21.8125V38.6875H248.906V21.8125H247.906ZM247.906 38.6875C247.906 39.9783 248.149 41.0266 248.751 41.7063L249.499 41.0437C249.142 40.64 248.906 39.8967 248.906 38.6875H247.906ZM248.751 41.7063C249.38 42.4183 250.492 42.6875 251.875 42.6875V41.6875C250.55 41.6875 249.828 41.4151 249.499 41.0437L248.751 41.7063ZM251.875 42.6875C252.898 42.6875 253.816 42.613 254.624 42.46L254.438 41.4775C253.705 41.6162 252.852 41.6875 251.875 41.6875V42.6875ZM254.031 41.9688V48.8125H255.031V41.9688H254.031ZM254.385 48.3344C252.662 48.8614 250.889 49.125 249.062 49.125V50.125C250.986 50.125 252.859 49.847 254.677 49.2906L254.385 48.3344ZM249.062 49.125C245.975 49.125 243.732 48.3461 242.242 46.8713C240.752 45.3956 239.936 43.1428 239.875 40.0215L238.875 40.041C238.939 43.3155 239.8 45.8596 241.539 47.5818C243.279 49.3049 245.817 50.125 249.062 50.125V49.125ZM239.875 40.0312V21.8125H238.875V40.0312H239.875ZM239.375 21.3125H234.438V22.3125H239.375V21.3125ZM234.938 21.8125V15.1875H233.938V21.8125H234.938ZM234.438 15.6875H239.375V14.6875H234.438V15.6875ZM239.875 15.1875V6.875H238.875V15.1875H239.875ZM239.375 7.375H248.406V6.375H239.375V7.375ZM258.812 22.8125L258.364 22.5917L258.812 22.8125ZM264.375 16.7188L264.121 16.2881L264.119 16.289L264.375 16.7188ZM284 18.75L283.652 19.1087L283.653 19.11L284 18.75ZM288.844 30.125L289.344 30.1115L289.343 30.1009L289.343 30.0903L288.844 30.125ZM288.906 32.4375H289.406L289.406 32.424L288.906 32.4375ZM284.562 44.9375L284.929 45.2774L284.93 45.2761L284.562 44.9375ZM261.219 44.9375L260.852 45.2774L260.853 45.2787L261.219 44.9375ZM267.719 39.8125L267.311 40.1012L267.312 40.1036L267.719 39.8125ZM278.031 39.8438L278.434 40.1405L278.435 40.1381L278.031 39.8438ZM267.719 24.4688L268.127 24.7575L268.129 24.7551L267.719 24.4688ZM257.375 31.7812C257.375 28.4924 258.008 25.5802 259.261 23.0333L258.364 22.5917C257.034 25.2948 256.375 28.3618 256.375 31.7812H257.375ZM259.261 23.0333C260.512 20.4914 262.301 18.5344 264.631 17.1485L264.119 16.289C261.616 17.7781 259.696 19.8836 258.364 22.5917L259.261 23.0333ZM264.629 17.1494C266.98 15.7631 269.713 15.0625 272.844 15.0625V14.0625C269.558 14.0625 266.645 14.7994 264.121 16.2881L264.629 17.1494ZM272.844 15.0625C277.296 15.0625 280.883 16.4204 283.652 19.1087L284.348 18.3913C281.367 15.4963 277.517 14.0625 272.844 14.0625V15.0625ZM283.653 19.11C286.443 21.7996 288.018 25.4662 288.345 30.1597L289.343 30.0903C289.002 25.2005 287.349 21.2837 284.347 18.39L283.653 19.11ZM288.344 30.1385L288.406 32.451L289.406 32.424L289.344 30.1115L288.344 30.1385ZM288.406 32.4375C288.406 37.5277 286.988 41.5642 284.195 44.5989L284.93 45.2761C287.928 42.0192 289.406 37.7223 289.406 32.4375H288.406ZM284.196 44.5976C281.409 47.6054 277.664 49.125 272.906 49.125V50.125C277.898 50.125 281.925 48.5196 284.929 45.2774L284.196 44.5976ZM272.906 49.125C268.148 49.125 264.393 47.6054 261.584 44.5963L260.853 45.2787C263.878 48.5196 267.914 50.125 272.906 50.125V49.125ZM261.585 44.5976C258.796 41.5875 257.375 37.4708 257.375 32.1875H256.375C256.375 37.6542 257.85 42.0375 260.852 45.2774L261.585 44.5976ZM257.375 32.1875V31.7812H256.375V32.1875H257.375ZM265.406 32.4375C265.406 35.6976 266.018 38.2743 267.311 40.1012L268.127 39.5238C267.002 37.934 266.406 35.594 266.406 32.4375H265.406ZM267.312 40.1036C268.623 41.9346 270.511 42.8438 272.906 42.8438V41.8438C270.802 41.8438 269.231 41.0654 268.125 39.5214L267.312 40.1036ZM272.906 42.8438C275.242 42.8438 277.104 41.9432 278.434 40.1405L277.629 39.547C276.5 41.0776 274.945 41.8438 272.906 41.8438V42.8438ZM278.435 40.1381C279.759 38.3212 280.375 35.5029 280.375 31.7812H279.375C279.375 35.4346 278.762 37.9913 277.627 39.5494L278.435 40.1381ZM280.375 31.7812C280.375 28.5792 279.751 26.0248 278.439 24.1791L277.624 24.7584C278.77 26.3711 279.375 28.6917 279.375 31.7812H280.375ZM278.439 24.1791C277.11 22.3102 275.225 21.375 272.844 21.375V22.375C274.921 22.375 276.494 23.1689 277.624 24.7584L278.439 24.1791ZM272.844 21.375C270.481 21.375 268.616 22.3121 267.309 24.1824L268.129 24.7551C269.238 23.1671 270.79 22.375 272.844 22.375V21.375ZM267.311 24.18C266.013 26.0144 265.406 28.7965 265.406 32.4375H266.406C266.406 28.8702 267.008 26.3397 268.127 24.7575L267.311 24.18ZM313.469 23.6562L313.402 24.1517L313.961 24.2275L313.969 23.6634L313.469 23.6562ZM303.5 26.875L303.046 26.6663L303 26.7656V26.875H303.5ZM303.5 49V49.5H304V49H303.5ZM294.469 49H293.969V49.5H294.469V49ZM294.469 15.1875V14.6875H293.969V15.1875H294.469ZM303 15.1875L303.499 15.1566L303.47 14.6875H303V15.1875ZM303.25 19.2188L302.751 19.2497L302.853 20.8907L303.682 19.4709L303.25 19.2188ZM313.594 14.9688L314.094 14.9759L314.099 14.6018L313.742 14.4911L313.594 14.9688ZM313.536 23.1608C312.291 22.992 311.185 22.9062 310.219 22.9062V23.9062C311.128 23.9062 312.188 23.9872 313.402 24.1517L313.536 23.1608ZM310.219 22.9062C306.686 22.9062 304.218 24.114 303.046 26.6663L303.954 27.0837C304.907 25.011 306.918 23.9062 310.219 23.9062V22.9062ZM303 26.875V49H304V26.875H303ZM303.5 48.5H294.469V49.5H303.5V48.5ZM294.969 49V15.1875H293.969V49H294.969ZM294.469 15.6875H303V14.6875H294.469V15.6875ZM302.501 15.2184L302.751 19.2497L303.749 19.1878L303.499 15.1566L302.501 15.2184ZM303.682 19.4709C305.418 16.498 307.775 15.0625 310.781 15.0625V14.0625C307.371 14.0625 304.707 15.7312 302.818 18.9666L303.682 19.4709ZM310.781 15.0625C311.736 15.0625 312.623 15.1917 313.446 15.4464L313.742 14.4911C312.815 14.2042 311.827 14.0625 310.781 14.0625V15.0625ZM313.094 14.9616L312.969 23.6491L313.969 23.6634L314.094 14.9759L313.094 14.9616ZM336.844 23.6562L336.777 24.1517L337.336 24.2275L337.344 23.6634L336.844 23.6562ZM326.875 26.875L326.421 26.6663L326.375 26.7656V26.875H326.875ZM326.875 49V49.5H327.375V49H326.875ZM317.844 49H317.344V49.5H317.844V49ZM317.844 15.1875V14.6875H317.344V15.1875H317.844ZM326.375 15.1875L326.874 15.1566L326.845 14.6875H326.375V15.1875ZM326.625 19.2188L326.126 19.2497L326.228 20.8907L327.057 19.4709L326.625 19.2188ZM336.969 14.9688L337.469 14.9759L337.474 14.6018L337.117 14.4911L336.969 14.9688ZM336.911 23.1608C335.666 22.992 334.56 22.9062 333.594 22.9062V23.9062C334.503 23.9062 335.563 23.9872 336.777 24.1517L336.911 23.1608ZM333.594 22.9062C330.061 22.9062 327.593 24.114 326.421 26.6663L327.329 27.0837C328.282 25.011 330.293 23.9062 333.594 23.9062V22.9062ZM326.375 26.875V49H327.375V26.875H326.375ZM326.875 48.5H317.844V49.5H326.875V48.5ZM318.344 49V15.1875H317.344V49H318.344ZM317.844 15.6875H326.375V14.6875H317.844V15.6875ZM325.876 15.2184L326.126 19.2497L327.124 19.1878L326.874 15.1566L325.876 15.2184ZM327.057 19.4709C328.793 16.498 331.15 15.0625 334.156 15.0625V14.0625C330.746 14.0625 328.082 15.7312 326.193 18.9666L327.057 19.4709ZM334.156 15.0625C335.111 15.0625 335.998 15.1917 336.821 15.4464L337.117 14.4911C336.19 14.2042 335.202 14.0625 334.156 14.0625V15.0625ZM336.469 14.9616L336.344 23.6491L337.344 23.6634L337.469 14.9759L336.469 14.9616ZM359.875 49L359.43 49.2282L359.569 49.5H359.875V49ZM358.969 45.9688L359.463 45.8921L359.301 44.8498L358.597 45.6348L358.969 45.9688ZM342.188 46.75L341.856 47.1245L341.858 47.1261L342.188 46.75ZM342.906 31.25L342.614 30.844L342.613 30.8451L342.906 31.25ZM354.438 28.3438V27.8437L354.435 27.8438L354.438 28.3438ZM358.594 28.3438V28.8438H359.094V28.3438H358.594ZM357.375 22.6562L356.993 22.9789L356.997 22.9837L357.375 22.6562ZM350 22.3438L349.68 21.9596L349.675 21.9635L350 22.3438ZM348.719 25.3438V25.8438H349.219V25.3438H348.719ZM339.688 25.3438H339.188V25.8438H339.688V25.3438ZM346.625 16L346.82 16.4603L346.824 16.4587L346.625 16ZM363.969 17.7188L363.642 18.0972L363.645 18.1002L363.969 17.7188ZM367.656 41.1875H367.156V41.1907L367.656 41.1875ZM369 48.4688H369.5V48.3441L369.441 48.234L369 48.4688ZM369 49V49.5H369.5V49H369ZM356.094 41.8438L356.324 42.2877L356.33 42.2842L356.094 41.8438ZM358.594 39.4375L359.033 39.6756L359.094 39.5642V39.4375H358.594ZM358.594 33.625H359.094V33.125H358.594V33.625ZM348 38.3125L347.502 38.266L347.501 38.2746L347.501 38.2831L348 38.3125ZM347.969 38.8438L347.47 38.8144L347.469 38.8291V38.8438H347.969ZM360.32 48.7718C359.934 48.0199 359.645 47.0644 359.463 45.8921L358.475 46.0454C358.668 47.2898 358.982 48.3551 359.43 49.2282L360.32 48.7718ZM358.597 45.6348C356.511 47.9587 353.806 49.125 350.438 49.125V50.125C354.069 50.125 357.051 48.8538 359.341 46.3027L358.597 45.6348ZM350.438 49.125C347.228 49.125 344.601 48.1996 342.517 46.3739L341.858 47.1261C344.149 49.1337 347.022 50.125 350.438 50.125V49.125ZM342.519 46.3755C340.46 44.5546 339.438 42.2748 339.438 39.5H338.438C338.438 42.5585 339.581 45.112 341.856 47.1245L342.519 46.3755ZM339.438 39.5C339.438 36.0589 340.698 33.4674 343.2 31.6549L342.613 30.8451C339.823 32.8659 338.438 35.7744 338.438 39.5H339.438ZM343.198 31.656C345.746 29.8245 349.471 28.8644 354.44 28.8437L354.435 27.8438C349.362 27.8648 345.4 28.8422 342.614 30.844L343.198 31.656ZM354.438 28.8438H358.594V27.8438H354.438V28.8438ZM359.094 28.3438V26.4062H358.094V28.3438H359.094ZM359.094 26.4062C359.094 24.7557 358.663 23.3789 357.753 22.3288L356.997 22.9837C357.712 23.8086 358.094 24.9318 358.094 26.4062H359.094ZM357.757 22.3337C356.836 21.2432 355.407 20.75 353.594 20.75V21.75C355.238 21.75 356.33 22.1943 356.993 22.9788L357.757 22.3337ZM353.594 20.75C351.995 20.75 350.671 21.1337 349.68 21.9596L350.32 22.7279C351.079 22.0954 352.15 21.75 353.594 21.75V20.75ZM349.675 21.9635C348.695 22.8008 348.219 23.9481 348.219 25.3438H349.219C349.219 24.1977 349.597 23.3451 350.325 22.724L349.675 21.9635ZM348.719 24.8438H339.688V25.8438H348.719V24.8438ZM340.188 25.3438C340.188 23.4964 340.755 21.7857 341.905 20.1997L341.095 19.6128C339.828 21.3601 339.188 23.2744 339.188 25.3438H340.188ZM341.905 20.1997C343.052 18.6181 344.682 17.3682 346.82 16.4602L346.43 15.5398C344.152 16.5068 342.365 17.8611 341.095 19.6128L341.905 20.1997ZM346.824 16.4587C348.961 15.5312 351.371 15.0625 354.062 15.0625V14.0625C351.254 14.0625 348.705 14.5521 346.426 15.5413L346.824 16.4587ZM354.062 15.0625C358.145 15.0625 361.319 16.0922 363.642 18.0972L364.295 17.3403C361.743 15.137 358.313 14.0625 354.062 14.0625V15.0625ZM363.645 18.1002C365.971 20.0714 367.156 22.8578 367.156 26.5312H368.156C368.156 22.6214 366.883 19.5328 364.292 17.3373L363.645 18.1002ZM367.156 26.5312V41.1875H368.156V26.5312H367.156ZM367.156 41.1907C367.177 44.4293 367.627 46.9521 368.559 48.7035L369.441 48.234C368.623 46.6937 368.177 44.3624 368.156 41.1843L367.156 41.1907ZM368.5 48.4688V49H369.5V48.4688H368.5ZM369 48.5H359.875V49.5H369V48.5ZM352.406 43.2188C353.815 43.2188 355.124 42.9098 356.324 42.2876L355.864 41.3999C354.813 41.9444 353.664 42.2188 352.406 42.2188V43.2188ZM356.33 42.2842C357.53 41.6398 358.44 40.7718 359.033 39.6756L358.154 39.1994C357.664 40.1032 356.907 40.8394 355.857 41.4033L356.33 42.2842ZM359.094 39.4375V33.625H358.094V39.4375H359.094ZM358.594 33.125H355.219V34.125H358.594V33.125ZM355.219 33.125C352.913 33.125 351.07 33.5214 349.751 34.3775C348.407 35.2506 347.661 36.5677 347.502 38.266L348.498 38.359C348.631 36.9323 349.234 35.9056 350.296 35.2162C351.384 34.5098 353.004 34.125 355.219 34.125V33.125ZM347.501 38.2831L347.47 38.8144L348.468 38.8731L348.499 38.3419L347.501 38.2831ZM347.469 38.8438C347.469 40.1013 347.918 41.1642 348.818 41.9928L349.495 41.2572C348.811 40.6275 348.469 39.8362 348.469 38.8438H347.469ZM348.818 41.9928C349.725 42.8286 350.942 43.2188 352.406 43.2188V42.2188C351.121 42.2188 350.171 41.8797 349.495 41.2572L348.818 41.9928ZM376.719 19.25L376.321 18.9475L376.319 18.9491L376.719 19.25ZM394.594 18.25L394.217 18.5788L395.094 19.5832V18.25H394.594ZM394.594 1V0.5H394.094V1H394.594ZM403.656 1H404.156V0.5H403.656V1ZM403.656 49V49.5H404.156V49H403.656ZM395.5 49L395.004 49.0604L395.057 49.5H395.5V49ZM395.062 45.4062L395.559 45.3458L395.415 44.1651L394.672 45.0939L395.062 45.4062ZM376.781 44.9375L376.383 45.2405L376.386 45.2434L376.781 44.9375ZM394.594 38.7812L395.043 39.0001L395.094 38.8965V38.7812H394.594ZM394.594 25.4375H395.094V25.3242L395.045 25.2219L394.594 25.4375ZM373.688 31.8438C373.688 26.6442 374.849 22.5635 377.118 19.5509L376.319 18.9491C373.881 22.1865 372.688 26.5017 372.688 31.8438H373.688ZM377.117 19.5525C379.392 16.5584 382.481 15.0625 386.438 15.0625V14.0625C382.185 14.0625 378.795 15.6916 376.321 18.9475L377.117 19.5525ZM386.438 15.0625C389.586 15.0625 392.167 16.2303 394.217 18.5788L394.97 17.9212C392.729 15.353 389.872 14.0625 386.438 14.0625V15.0625ZM395.094 18.25V1H394.094V18.25H395.094ZM394.594 1.5H403.656V0.5H394.594V1.5ZM403.156 1V49H404.156V1H403.156ZM403.656 48.5H395.5V49.5H403.656V48.5ZM395.996 48.9396L395.559 45.3458L394.566 45.4667L395.004 49.0604L395.996 48.9396ZM394.672 45.0939C392.515 47.7901 389.762 49.125 386.375 49.125V50.125C390.072 50.125 393.11 48.6474 395.453 45.7186L394.672 45.0939ZM386.375 49.125C382.549 49.125 379.498 47.6331 377.177 44.6316L376.386 45.2434C378.898 48.4919 382.242 50.125 386.375 50.125V49.125ZM377.179 44.6346C374.872 41.6053 373.688 37.3616 373.688 31.8438H372.688C372.688 37.4926 373.899 41.9781 376.383 45.2404L377.179 44.6346ZM381.719 32.5C381.719 35.7129 382.277 38.252 383.457 40.055L384.293 39.5075C383.265 37.9355 382.719 35.6204 382.719 32.5H381.719ZM383.457 40.055C384.658 41.8909 386.423 42.8125 388.688 42.8125V41.8125C386.743 41.8125 385.3 41.0466 384.293 39.5075L383.457 40.055ZM388.688 42.8125C390.154 42.8125 391.437 42.5029 392.514 41.8588C393.594 41.2136 394.434 40.2518 395.043 39.0001L394.144 38.5624C393.608 39.6648 392.891 40.4687 392.001 41.0005C391.11 41.5336 390.013 41.8125 388.688 41.8125V42.8125ZM395.094 38.7812V25.4375H394.094V38.7812H395.094ZM395.045 25.2219C394.447 23.97 393.617 23.0072 392.548 22.3611C391.48 21.7161 390.207 21.4062 388.75 21.4062V22.4062C390.064 22.4062 391.15 22.6849 392.03 23.217C392.909 23.748 393.616 24.5508 394.143 25.6531L395.045 25.2219ZM388.75 21.4062C386.41 21.4062 384.611 22.3703 383.426 24.2923C382.266 26.1745 381.719 28.9336 381.719 32.5H382.719C382.719 29.0039 383.261 26.4661 384.277 24.8171C385.269 23.2078 386.736 22.4062 388.75 22.4062V21.4062ZM132.125 105.406V105.906H132.625V105.406H132.125ZM114.125 105.406V104.906H113.625V105.406H114.125ZM114.125 124V124.5H114.625V124H114.125ZM104.75 124H104.25V124.5H104.75V124ZM104.75 78.5V78H104.25V78.5H104.75ZM134.375 78.5H134.875V78H134.375V78.5ZM134.375 86.0938V86.5938H134.875V86.0938H134.375ZM114.125 86.0938V85.5938H113.625V86.0938H114.125ZM114.125 97.8438H113.625V98.3438H114.125V97.8438ZM132.125 97.8438H132.625V97.3438H132.125V97.8438ZM132.125 104.906H114.125V105.906H132.125V104.906ZM113.625 105.406V124H114.625V105.406H113.625ZM114.125 123.5H104.75V124.5H114.125V123.5ZM105.25 124V78.5H104.25V124H105.25ZM104.75 79H134.375V78H104.75V79ZM133.875 78.5V86.0938H134.875V78.5H133.875ZM134.375 85.5938H114.125V86.5938H134.375V85.5938ZM113.625 86.0938V97.8438H114.625V86.0938H113.625ZM114.125 98.3438H132.125V97.3438H114.125V98.3438ZM131.625 97.8438V105.406H132.625V97.8438H131.625ZM139.062 97.8125L138.614 97.5917L139.062 97.8125ZM144.625 91.7188L144.371 91.2881L144.369 91.289L144.625 91.7188ZM164.25 93.75L163.902 94.1087L163.903 94.11L164.25 93.75ZM169.094 105.125L169.594 105.111L169.593 105.101L169.593 105.09L169.094 105.125ZM169.156 107.438H169.656L169.656 107.424L169.156 107.438ZM164.812 119.938L165.179 120.277L165.18 120.276L164.812 119.938ZM141.469 119.938L141.102 120.277L141.103 120.279L141.469 119.938ZM147.969 114.812L147.561 115.101L147.562 115.104L147.969 114.812ZM158.281 114.844L158.684 115.141L158.685 115.138L158.281 114.844ZM147.969 99.4688L148.377 99.7575L148.379 99.7551L147.969 99.4688ZM137.625 106.781C137.625 103.492 138.258 100.58 139.511 98.0333L138.614 97.5917C137.284 100.295 136.625 103.362 136.625 106.781H137.625ZM139.511 98.0333C140.762 95.4914 142.551 93.5344 144.881 92.1485L144.369 91.289C141.866 92.7781 139.946 94.8836 138.614 97.5917L139.511 98.0333ZM144.879 92.1494C147.23 90.7631 149.963 90.0625 153.094 90.0625V89.0625C149.808 89.0625 146.895 89.7994 144.371 91.2881L144.879 92.1494ZM153.094 90.0625C157.546 90.0625 161.133 91.4204 163.902 94.1087L164.598 93.3913C161.617 90.4963 157.767 89.0625 153.094 89.0625V90.0625ZM163.903 94.11C166.693 96.7996 168.268 100.466 168.595 105.16L169.593 105.09C169.252 100.2 167.599 96.2837 164.597 93.39L163.903 94.11ZM168.594 105.139L168.656 107.451L169.656 107.424L169.594 105.111L168.594 105.139ZM168.656 107.438C168.656 112.528 167.238 116.564 164.445 119.599L165.18 120.276C168.178 117.019 169.656 112.722 169.656 107.438H168.656ZM164.446 119.598C161.659 122.605 157.914 124.125 153.156 124.125V125.125C158.148 125.125 162.175 123.52 165.179 120.277L164.446 119.598ZM153.156 124.125C148.398 124.125 144.643 122.605 141.834 119.596L141.103 120.279C144.128 123.52 148.164 125.125 153.156 125.125V124.125ZM141.835 119.598C139.046 116.588 137.625 112.471 137.625 107.188H136.625C136.625 112.654 138.1 117.037 141.102 120.277L141.835 119.598ZM137.625 107.188V106.781H136.625V107.188H137.625ZM145.656 107.438C145.656 110.698 146.268 113.274 147.561 115.101L148.377 114.524C147.252 112.934 146.656 110.594 146.656 107.438H145.656ZM147.562 115.104C148.873 116.935 150.761 117.844 153.156 117.844V116.844C151.052 116.844 149.481 116.065 148.375 114.521L147.562 115.104ZM153.156 117.844C155.492 117.844 157.354 116.943 158.684 115.141L157.879 114.547C156.75 116.078 155.195 116.844 153.156 116.844V117.844ZM158.685 115.138C160.009 113.321 160.625 110.503 160.625 106.781H159.625C159.625 110.435 159.012 112.991 157.877 114.549L158.685 115.138ZM160.625 106.781C160.625 103.579 160.001 101.025 158.689 99.1791L157.874 99.7584C159.02 101.371 159.625 103.692 159.625 106.781H160.625ZM158.689 99.1791C157.36 97.3102 155.475 96.375 153.094 96.375V97.375C155.171 97.375 156.744 98.1689 157.874 99.7584L158.689 99.1791ZM153.094 96.375C150.731 96.375 148.866 97.3121 147.559 99.1824L148.379 99.7551C149.488 98.1671 151.04 97.375 153.094 97.375V96.375ZM147.561 99.18C146.263 101.014 145.656 103.797 145.656 107.438H146.656C146.656 103.87 147.258 101.34 148.377 99.7575L147.561 99.18ZM193.719 98.6562L193.652 99.1517L194.211 99.2275L194.219 98.6634L193.719 98.6562ZM183.75 101.875L183.296 101.666L183.25 101.766V101.875H183.75ZM183.75 124V124.5H184.25V124H183.75ZM174.719 124H174.219V124.5H174.719V124ZM174.719 90.1875V89.6875H174.219V90.1875H174.719ZM183.25 90.1875L183.749 90.1566L183.72 89.6875H183.25V90.1875ZM183.5 94.2188L183.001 94.2497L183.103 95.8907L183.932 94.4709L183.5 94.2188ZM193.844 89.9688L194.344 89.9759L194.349 89.6018L193.992 89.4911L193.844 89.9688ZM193.786 98.1608C192.541 97.992 191.435 97.9062 190.469 97.9062V98.9062C191.378 98.9062 192.438 98.9872 193.652 99.1517L193.786 98.1608ZM190.469 97.9062C186.936 97.9062 184.468 99.114 183.296 101.666L184.204 102.084C185.157 100.011 187.168 98.9062 190.469 98.9062V97.9062ZM183.25 101.875V124H184.25V101.875H183.25ZM183.75 123.5H174.719V124.5H183.75V123.5ZM175.219 124V90.1875H174.219V124H175.219ZM174.719 90.6875H183.25V89.6875H174.719V90.6875ZM182.751 90.2184L183.001 94.2497L183.999 94.1878L183.749 90.1566L182.751 90.2184ZM183.932 94.4709C185.668 91.498 188.025 90.0625 191.031 90.0625V89.0625C187.621 89.0625 184.957 90.7312 183.068 93.9666L183.932 94.4709ZM191.031 90.0625C191.986 90.0625 192.873 90.1917 193.696 90.4464L193.992 89.4911C193.065 89.2042 192.077 89.0625 191.031 89.0625V90.0625ZM193.344 89.9616L193.219 98.6491L194.219 98.6634L194.344 89.9759L193.344 89.9616ZM218.344 120.562L218.842 120.526L218.752 119.28L217.958 120.245L218.344 120.562ZM200.781 121.5L200.411 121.837L200.413 121.839L200.781 121.5ZM197.875 112.344H197.375L197.375 112.349L197.875 112.344ZM197.875 90.1875V89.6875H197.375V90.1875H197.875ZM206.906 90.1875H207.406V89.6875H206.906V90.1875ZM218.031 114.125L218.471 114.362L218.531 114.251V114.125H218.031ZM218.031 90.1875V89.6875H217.531V90.1875H218.031ZM227.094 90.1875H227.594V89.6875H227.094V90.1875ZM227.094 124V124.5H227.594V124H227.094ZM218.594 124L218.095 124.036L218.129 124.5H218.594V124ZM217.958 120.245C215.836 122.823 212.902 124.125 209.094 124.125V125.125C213.16 125.125 216.393 123.719 218.73 120.88L217.958 120.245ZM209.094 124.125C205.567 124.125 202.946 123.115 201.149 121.161L200.413 121.839C202.45 124.052 205.371 125.125 209.094 125.125V124.125ZM201.151 121.163C199.367 119.203 198.416 116.289 198.375 112.339L197.375 112.349C197.417 116.44 198.404 119.63 200.411 121.837L201.151 121.163ZM198.375 112.344V90.1875H197.375V112.344H198.375ZM197.875 90.6875H206.906V89.6875H197.875V90.6875ZM206.406 90.1875V112.031H207.406V90.1875H206.406ZM206.406 112.031C206.406 113.858 206.821 115.321 207.74 116.329C208.666 117.346 210.025 117.812 211.719 117.812V116.812C210.204 116.812 209.157 116.399 208.479 115.655C207.793 114.903 207.406 113.726 207.406 112.031H206.406ZM211.719 117.812C214.907 117.812 217.214 116.694 218.471 114.362L217.591 113.888C216.557 115.806 214.655 116.812 211.719 116.812V117.812ZM218.531 114.125V90.1875H217.531V114.125H218.531ZM218.031 90.6875H227.094V89.6875H218.031V90.6875ZM226.594 90.1875V124H227.594V90.1875H226.594ZM227.094 123.5H218.594V124.5H227.094V123.5ZM219.092 123.964L218.842 120.526L217.845 120.599L218.095 124.036L219.092 123.964ZM242.375 90.1875L242.874 90.1504L242.839 89.6875H242.375V90.1875ZM242.656 93.9688L242.158 94.0058L242.251 95.2571L243.044 94.2848L242.656 93.9688ZM261.344 94.7188L260.892 94.9324L261.262 95.7163L261.755 95.003L261.344 94.7188ZM279.688 92.7812L279.304 93.1017L279.305 93.1035L279.688 92.7812ZM282.375 124V124.5H282.875V124H282.375ZM273.312 124H272.812V124.5H273.312V124ZM272.188 98.25L271.804 98.571L271.808 98.5754L272.188 98.25ZM262.594 100.781L262.13 100.594L262.094 100.685L262.094 100.782L262.594 100.781ZM262.625 124V124.5H263.126L263.125 123.999L262.625 124ZM253.594 124H253.094V124.5H253.594V124ZM242.938 100.094L242.497 99.8564L242.438 99.9675V100.094H242.938ZM242.938 124V124.5H243.438V124H242.938ZM233.906 124H233.406V124.5H233.906V124ZM233.906 90.1875V89.6875H233.406V90.1875H233.906ZM241.876 90.2246L242.158 94.0058L243.155 93.9317L242.874 90.1504L241.876 90.2246ZM243.044 94.2848C245.337 91.4736 248.429 90.0625 252.375 90.0625V89.0625C248.155 89.0625 244.768 90.5889 242.269 93.6527L243.044 94.2848ZM252.375 90.0625C254.487 90.0625 256.232 90.4793 257.634 91.285C259.031 92.0884 260.118 93.296 260.892 94.9324L261.796 94.5051C260.944 92.704 259.724 91.3335 258.132 90.4181C256.544 89.5051 254.617 89.0625 252.375 89.0625V90.0625ZM261.755 95.003C264.031 91.7087 267.258 90.0625 271.5 90.0625V89.0625C266.95 89.0625 263.406 90.8538 260.932 94.4345L261.755 95.003ZM271.5 90.0625C275.068 90.0625 277.635 91.1028 279.304 93.1017L280.071 92.4608C278.157 90.168 275.265 89.0625 271.5 89.0625V90.0625ZM279.305 93.1035C280.989 95.1006 281.875 98.1714 281.875 102.406H282.875C282.875 98.0578 281.969 94.7119 280.07 92.459L279.305 93.1035ZM281.875 102.406V124H282.875V102.406H281.875ZM282.375 123.5H273.312V124.5H282.375V123.5ZM273.812 124V102.438H272.812V124H273.812ZM273.812 102.438C273.812 100.475 273.432 98.9336 272.567 97.9246L271.808 98.5754C272.443 99.3164 272.812 100.567 272.812 102.438H273.812ZM272.571 97.929C271.68 96.8649 270.172 96.4062 268.219 96.4062V97.4062C270.057 97.4062 271.195 97.8434 271.804 98.571L272.571 97.929ZM268.219 96.4062C266.783 96.4062 265.533 96.7497 264.498 97.4632C263.463 98.176 262.679 99.2321 262.13 100.594L263.057 100.968C263.55 99.747 264.225 98.8656 265.065 98.2868C265.904 97.7086 266.946 97.4062 268.219 97.4062V96.4062ZM262.094 100.782L262.125 124.001L263.125 123.999L263.094 100.781L262.094 100.782ZM262.625 123.5H253.594V124.5H262.625V123.5ZM254.094 124V102.469H253.094V124H254.094ZM254.094 102.469C254.094 100.465 253.703 98.8991 252.813 97.8882L252.062 98.5493C252.714 99.2884 253.094 100.556 253.094 102.469H254.094ZM252.813 97.8882C251.903 96.8557 250.414 96.4062 248.5 96.4062V97.4062C250.294 97.4062 251.43 97.8318 252.062 98.5493L252.813 97.8882ZM248.5 96.4062C247.149 96.4062 245.955 96.6868 244.939 97.2693C243.921 97.8527 243.109 98.7228 242.497 99.8564L243.378 100.331C243.912 99.3397 244.6 98.616 245.436 98.1369C246.274 97.657 247.289 97.4062 248.5 97.4062V96.4062ZM242.438 100.094V124H243.438V100.094H242.438ZM242.938 123.5H233.906V124.5H242.938V123.5ZM234.406 124V90.1875H233.406V124H234.406ZM233.906 90.6875H242.375V89.6875H233.906V90.6875ZM298.531 110.031V110.531H299.015L299.031 110.048L298.531 110.031ZM291.031 110.031L290.532 110.048L290.548 110.531H291.031V110.031ZM289.969 78.5V78H289.452L289.469 78.5168L289.969 78.5ZM299.594 78.5L300.093 78.5168L300.111 78H299.594V78.5ZM298.438 116.312L298.088 116.67L298.092 116.674L298.438 116.312ZM298.438 123.156L298.092 122.795L298.088 122.799L298.438 123.156ZM291.125 123.156L290.776 123.514L290.78 123.518L291.125 123.156ZM291.125 116.344L291.474 116.701L291.475 116.701L291.125 116.344ZM298.531 109.531H291.031V110.531H298.531V109.531ZM291.531 110.014L290.468 78.4832L289.469 78.5168L290.532 110.048L291.531 110.014ZM289.969 79H299.594V78H289.969V79ZM299.094 78.4832L298.032 110.014L299.031 110.048L300.093 78.5168L299.094 78.4832ZM294.781 115.469C296.198 115.469 297.282 115.882 298.088 116.67L298.787 115.955C297.76 114.951 296.407 114.469 294.781 114.469V115.469ZM298.092 116.674C298.923 117.468 299.344 118.479 299.344 119.75H300.344C300.344 118.229 299.827 116.949 298.783 115.951L298.092 116.674ZM299.344 119.75C299.344 120.998 298.924 121.999 298.092 122.795L298.783 123.518C299.826 122.521 300.344 121.252 300.344 119.75H299.344ZM298.088 122.799C297.282 123.586 296.198 124 294.781 124V125C296.407 125 297.76 124.518 298.787 123.514L298.088 122.799ZM294.781 124C293.388 124 292.3 123.588 291.47 122.795L290.78 123.518C291.825 124.516 293.174 125 294.781 125V124ZM291.474 122.799C290.662 122.004 290.25 121.001 290.25 119.75H289.25C289.25 121.249 289.755 122.517 290.776 123.514L291.474 122.799ZM290.25 119.75C290.25 118.499 290.662 117.496 291.474 116.701L290.776 115.986C289.755 116.983 289.25 118.251 289.25 119.75H290.25ZM291.475 116.701C292.305 115.889 293.392 115.469 294.781 115.469V114.469C293.171 114.469 291.82 114.965 290.775 115.986L291.475 116.701Z" fill="black"/>
</g>
<defs>
<filter id="filter0_d" x="0.375" y="0.5" width="412.781" height="133.625" filterUnits="userSpaceOnUse" color-interpolation-filters="sRGB">
<feFlood flood-opacity="0" result="BackgroundImageFix"/>
<feColorMatrix in="SourceAlpha" type="matrix" values="0 0 0 0 0 0 0 0 0 0 0 0 0 0 0 0 0 0 127 0"/>
<feOffset dx="5" dy="5"/>
<feGaussianBlur stdDeviation="2"/>
<feColorMatrix type="matrix" values="0 0 0 0 0 0 0 0 0 0 0 0 0 0 0 0 0 0 0.5 0"/>
<feBlend mode="normal" in2="BackgroundImageFix" result="effect1_dropShadow"/>
<feBlend mode="normal" in="SourceGraphic" in2="effect1_dropShadow" result="shape"/>
</filter>
</defs>
</svg>
