<svg width="33" height="33" viewBox="0 0 33 33" fill="none" xmlns="http://www.w3.org/2000/svg">
<g filter="url(#filter0_d)">
<path fill-rule="evenodd" clip-rule="evenodd" d="M15 5C17.7625 5 20 7.2375 20 10C20 12.7625 17.7625 15 15 15C12.2375 15 10 12.7625 10 10C10 7.2375 12.2375 5 15 5ZM12.375 10C12.375 8.55 13.55 7.375 15 7.375C16.45 7.375 17.625 8.55 17.625 10C17.625 11.45 16.45 12.625 15 12.625C13.55 12.625 12.375 11.45 12.375 10ZM7.375 21.25C7.375 20.45 11.2875 18.625 15 18.625C18.7125 18.625 22.625 20.45 22.625 21.25V22.625H7.375V21.25ZM25 21.25C25 17.925 18.3375 16.25 15 16.25C11.6625 16.25 5 17.925 5 21.25V25H25V21.25Z" fill="#E0E0E0"/>
</g>
<defs>
<filter id="filter0_d" x="0" y="0" width="38" height="38" filterUnits="userSpaceOnUse" color-interpolation-filters="sRGB">
<feFlood flood-opacity="0" result="BackgroundImageFix"/>
<feColorMatrix in="SourceAlpha" type="matrix" values="0 0 0 0 0 0 0 0 0 0 0 0 0 0 0 0 0 0 127 0"/>
<feOffset dx="4" dy="4"/>
<feGaussianBlur stdDeviation="2"/>
<feColorMatrix type="matrix" values="0 0 0 0 0 0 0 0 0 0 0 0 0 0 0 0 0 0 0.25 0"/>
<feBlend mode="normal" in2="BackgroundImageFix" result="effect1_dropShadow"/>
<feBlend mode="normal" in="SourceGraphic" in2="effect1_dropShadow" result="shape"/>
</filter>
</defs>
</svg>
