<svg width="204" height="56" viewBox="0 0 204 56" fill="none" xmlns="http://www.w3.org/2000/svg">
<g filter="url(#filter0_d)">
<path d="M37.625 8.09375H23.6875V46H14.3125V8.09375H0.5625V0.5H37.625V8.09375ZM34.5 28.7812C34.5 25.4271 35.1458 22.4375 36.4375 19.8125C37.7292 17.1875 39.5833 15.1562 42 13.7188C44.4375 12.2812 47.2604 11.5625 50.4688 11.5625C55.0312 11.5625 58.75 12.9583 61.625 15.75C64.5208 18.5417 66.1354 22.3333 66.4688 27.125L66.5312 29.4375C66.5312 34.625 65.0833 38.7917 62.1875 41.9375C59.2917 45.0625 55.4062 46.625 50.5312 46.625C45.6562 46.625 41.7604 45.0625 38.8438 41.9375C35.9479 38.8125 34.5 34.5625 34.5 29.1875V28.7812ZM43.5312 29.4375C43.5312 32.6458 44.1354 35.1042 45.3438 36.8125C46.5521 38.5 48.2812 39.3438 50.5312 39.3438C52.7188 39.3438 54.4271 38.5104 55.6562 36.8438C56.8854 35.1562 57.5 32.4688 57.5 28.7812C57.5 25.6354 56.8854 23.1979 55.6562 21.4688C54.4271 19.7396 52.6979 18.875 50.4688 18.875C48.2604 18.875 46.5521 19.7396 45.3438 21.4688C44.1354 23.1771 43.5312 25.8333 43.5312 29.4375ZM92.3438 42.5625C90.1146 45.2708 87.0312 46.625 83.0938 46.625C79.4688 46.625 76.6979 45.5833 74.7812 43.5C72.8854 41.4167 71.9167 38.3646 71.875 34.3438V12.1875H80.9062V34.0312C80.9062 37.5521 82.5104 39.3125 85.7188 39.3125C88.7812 39.3125 90.8854 38.25 92.0312 36.125V12.1875H101.094V46H92.5938L92.3438 42.5625ZM126.906 20.6562C125.677 20.4896 124.594 20.4062 123.656 20.4062C120.24 20.4062 118 21.5625 116.938 23.875V46H107.906V12.1875H116.438L116.688 16.2188C118.5 13.1146 121.01 11.5625 124.219 11.5625C125.219 11.5625 126.156 11.6979 127.031 11.9688L126.906 20.6562ZM146.219 46.625C141.26 46.625 137.219 45.1042 134.094 42.0625C130.99 39.0208 129.438 34.9688 129.438 29.9062V29.0312C129.438 25.6354 130.094 22.6042 131.406 19.9375C132.719 17.25 134.573 15.1875 136.969 13.75C139.385 12.2917 142.135 11.5625 145.219 11.5625C149.844 11.5625 153.479 13.0208 156.125 15.9375C158.792 18.8542 160.125 22.9896 160.125 28.3438V32.0312H138.594C138.885 34.2396 139.76 36.0104 141.219 37.3438C142.698 38.6771 144.562 39.3438 146.812 39.3438C150.292 39.3438 153.01 38.0833 154.969 35.5625L159.406 40.5312C158.052 42.4479 156.219 43.9479 153.906 45.0312C151.594 46.0938 149.031 46.625 146.219 46.625ZM145.188 18.875C143.396 18.875 141.938 19.4792 140.812 20.6875C139.708 21.8958 139 23.625 138.688 25.875H151.25V25.1562C151.208 23.1562 150.667 21.6146 149.625 20.5312C148.583 19.4271 147.104 18.875 145.188 18.875ZM173.594 12.1875L173.875 16.0938C176.292 13.0729 179.531 11.5625 183.594 11.5625C187.177 11.5625 189.844 12.6146 191.594 14.7188C193.344 16.8229 194.24 19.9688 194.281 24.1562V46H185.25V24.375C185.25 22.4583 184.833 21.0729 184 20.2188C183.167 19.3438 181.781 18.9062 179.844 18.9062C177.302 18.9062 175.396 19.9896 174.125 22.1562V46H165.094V12.1875H173.594Z" fill="#F2994A"/>
<path d="M37.625 8.09375V8.59375H38.125V8.09375H37.625ZM23.6875 8.09375V7.59375H23.1875V8.09375H23.6875ZM23.6875 46V46.5H24.1875V46H23.6875ZM14.3125 46H13.8125V46.5H14.3125V46ZM14.3125 8.09375H14.8125V7.59375H14.3125V8.09375ZM0.5625 8.09375H0.0625V8.59375H0.5625V8.09375ZM0.5625 0.5V0H0.0625V0.5H0.5625ZM37.625 0.5H38.125V0H37.625V0.5ZM37.625 7.59375H23.6875V8.59375H37.625V7.59375ZM23.1875 8.09375V46H24.1875V8.09375H23.1875ZM23.6875 45.5H14.3125V46.5H23.6875V45.5ZM14.8125 46V8.09375H13.8125V46H14.8125ZM14.3125 7.59375H0.5625V8.59375H14.3125V7.59375ZM1.0625 8.09375V0.5H0.0625V8.09375H1.0625ZM0.5625 1H37.625V0H0.5625V1ZM37.125 0.5V8.09375H38.125V0.5H37.125ZM36.4375 19.8125L35.9889 19.5917L36.4375 19.8125ZM42 13.7188L41.746 13.2881L41.7444 13.289L42 13.7188ZM61.625 15.75L61.2767 16.1087L61.278 16.11L61.625 15.75ZM66.4688 27.125L66.9686 27.1115L66.9683 27.1009L66.9675 27.0903L66.4688 27.125ZM66.5312 29.4375H67.0314L67.0311 29.424L66.5312 29.4375ZM62.1875 41.9375L62.5542 42.2774L62.5554 42.2761L62.1875 41.9375ZM38.8438 41.9375L38.477 42.2774L38.4782 42.2787L38.8438 41.9375ZM45.3438 36.8125L44.9355 37.1012L44.9372 37.1036L45.3438 36.8125ZM55.6562 36.8438L56.0587 37.1405L56.0604 37.1381L55.6562 36.8438ZM45.3438 21.4688L45.752 21.7575L45.7536 21.7551L45.3438 21.4688ZM35 28.7812C35 25.4924 35.6329 22.5802 36.8861 20.0333L35.9889 19.5917C34.6588 22.2948 34 25.3618 34 28.7812H35ZM36.8861 20.0333C38.1369 17.4914 39.9256 15.5344 42.2556 14.1485L41.7444 13.289C39.241 14.7781 37.3215 16.8836 35.9889 19.5917L36.8861 20.0333ZM42.254 14.1494C44.6047 12.7631 47.3376 12.0625 50.4688 12.0625V11.0625C47.1833 11.0625 44.2703 11.7994 41.746 13.2881L42.254 14.1494ZM50.4688 12.0625C54.9207 12.0625 58.5081 13.4204 61.2767 16.1087L61.9733 15.3913C58.9919 12.4963 55.1418 11.0625 50.4688 11.0625V12.0625ZM61.278 16.11C64.068 18.7996 65.6434 22.4662 65.97 27.1597L66.9675 27.0903C66.6274 22.2005 64.9737 18.2837 61.972 15.39L61.278 16.11ZM65.9689 27.1385L66.0314 29.451L67.0311 29.424L66.9686 27.1115L65.9689 27.1385ZM66.0312 29.4375C66.0312 34.5277 64.6132 38.5642 61.8196 41.5989L62.5554 42.2761C65.5535 39.0192 67.0312 34.7223 67.0312 29.4375H66.0312ZM61.8208 41.5977C59.0336 44.6054 55.2891 46.125 50.5312 46.125V47.125C55.5234 47.125 59.5498 45.5196 62.5542 42.2773L61.8208 41.5977ZM50.5312 46.125C45.7734 46.125 42.0177 44.6054 39.2093 41.5963L38.4782 42.2787C41.5031 45.5196 45.5391 47.125 50.5312 47.125V46.125ZM39.2105 41.5977C36.4211 38.5875 35 34.4708 35 29.1875H34C34 34.6542 35.4747 39.0375 38.477 42.2773L39.2105 41.5977ZM35 29.1875V28.7812H34V29.1875H35ZM43.0312 29.4375C43.0312 32.6976 43.6433 35.2743 44.9355 37.1012L45.752 36.5238C44.6275 34.934 44.0312 32.594 44.0312 29.4375H43.0312ZM44.9372 37.1036C46.2483 38.9346 48.1358 39.8438 50.5312 39.8438V38.8438C48.4267 38.8438 46.8559 38.0654 45.7503 36.5214L44.9372 37.1036ZM50.5312 39.8438C52.8671 39.8438 54.7292 38.9432 56.0587 37.1405L55.2538 36.547C54.125 38.0777 52.5704 38.8438 50.5312 38.8438V39.8438ZM56.0604 37.1381C57.3838 35.3212 58 32.5029 58 28.7812H57C57 32.4346 56.387 34.9913 55.2521 36.5494L56.0604 37.1381ZM58 28.7812C58 25.5792 57.3758 23.0247 56.0638 21.1791L55.2487 21.7584C56.3951 23.3711 57 25.6917 57 28.7812H58ZM56.0638 21.1791C54.7353 19.3102 52.8501 18.375 50.4688 18.375V19.375C52.5457 19.375 54.1188 20.1689 55.2487 21.7584L56.0638 21.1791ZM50.4688 18.375C48.1062 18.375 46.2408 19.3121 44.9339 21.1824L45.7536 21.7551C46.8633 20.1671 48.4146 19.375 50.4688 19.375V18.375ZM44.9355 21.18C43.638 23.0144 43.0312 25.7965 43.0312 29.4375H44.0312C44.0312 25.8702 44.6328 23.3397 45.752 21.7575L44.9355 21.18ZM92.3438 42.5625L92.8424 42.5262L92.7518 41.28L91.9577 42.2448L92.3438 42.5625ZM74.7812 43.5L74.4114 43.8365L74.4133 43.8385L74.7812 43.5ZM71.875 34.3438H71.375L71.375 34.3489L71.875 34.3438ZM71.875 12.1875V11.6875H71.375V12.1875H71.875ZM80.9062 12.1875H81.4062V11.6875H80.9062V12.1875ZM92.0312 36.125L92.4713 36.3623L92.5312 36.2512V36.125H92.0312ZM92.0312 12.1875V11.6875H91.5312V12.1875H92.0312ZM101.094 12.1875H101.594V11.6875H101.094V12.1875ZM101.094 46V46.5H101.594V46H101.094ZM92.5938 46L92.0951 46.0363L92.1288 46.5H92.5938V46ZM91.9577 42.2448C89.8359 44.8226 86.9025 46.125 83.0938 46.125V47.125C87.16 47.125 90.3933 45.719 92.7298 42.8802L91.9577 42.2448ZM83.0938 46.125C79.5669 46.125 76.9463 45.1148 75.1492 43.1615L74.4133 43.8385C76.4496 46.0519 79.3706 47.125 83.0938 47.125V46.125ZM75.151 43.1635C73.3671 41.2031 72.4159 38.2887 72.375 34.3386L71.375 34.3489C71.4174 38.4405 72.4037 41.6302 74.4115 43.8365L75.151 43.1635ZM72.375 34.3438V12.1875H71.375V34.3438H72.375ZM71.875 12.6875H80.9062V11.6875H71.875V12.6875ZM80.4062 12.1875V34.0312H81.4062V12.1875H80.4062ZM80.4062 34.0312C80.4062 35.8578 80.8214 37.3211 81.7398 38.329C82.6663 39.3457 84.0249 39.8125 85.7188 39.8125V38.8125C84.2042 38.8125 83.1567 38.3991 82.4789 37.6554C81.7932 36.9029 81.4062 35.7255 81.4062 34.0312H80.4062ZM85.7188 39.8125C88.9071 39.8125 91.2138 38.6944 92.4713 36.3623L91.5912 35.8877C90.557 37.8056 88.6554 38.8125 85.7188 38.8125V39.8125ZM92.5312 36.125V12.1875H91.5312V36.125H92.5312ZM92.0312 12.6875H101.094V11.6875H92.0312V12.6875ZM100.594 12.1875V46H101.594V12.1875H100.594ZM101.094 45.5H92.5938V46.5H101.094V45.5ZM93.0924 45.9637L92.8424 42.5262L91.8451 42.5988L92.0951 46.0363L93.0924 45.9637ZM126.906 20.6562L126.839 21.1517L127.398 21.2275L127.406 20.6634L126.906 20.6562ZM116.938 23.875L116.483 23.6663L116.438 23.7656V23.875H116.938ZM116.938 46V46.5H117.438V46H116.938ZM107.906 46H107.406V46.5H107.906V46ZM107.906 12.1875V11.6875H107.406V12.1875H107.906ZM116.438 12.1875L116.937 12.1566L116.907 11.6875H116.438V12.1875ZM116.688 16.2188L116.188 16.2497L116.29 17.8907L117.119 16.4709L116.688 16.2188ZM127.031 11.9688L127.531 11.9759L127.537 11.6018L127.179 11.4911L127.031 11.9688ZM126.973 20.1608C125.729 19.992 124.622 19.9062 123.656 19.9062V20.9062C124.565 20.9062 125.626 20.9872 126.839 21.1517L126.973 20.1608ZM123.656 19.9062C120.124 19.9062 117.656 21.114 116.483 23.6663L117.392 24.0837C118.344 22.011 120.356 20.9062 123.656 20.9062V19.9062ZM116.438 23.875V46H117.438V23.875H116.438ZM116.938 45.5H107.906V46.5H116.938V45.5ZM108.406 46V12.1875H107.406V46H108.406ZM107.906 12.6875H116.438V11.6875H107.906V12.6875ZM115.938 12.2184L116.188 16.2497L117.187 16.1878L116.937 12.1566L115.938 12.2184ZM117.119 16.4709C118.855 13.498 121.213 12.0625 124.219 12.0625V11.0625C120.808 11.0625 118.145 12.7312 116.256 15.9666L117.119 16.4709ZM124.219 12.0625C125.173 12.0625 126.06 12.1917 126.883 12.4464L127.179 11.4911C126.252 11.2042 125.264 11.0625 124.219 11.0625V12.0625ZM126.531 11.9616L126.406 20.6491L127.406 20.6634L127.531 11.9759L126.531 11.9616ZM134.094 42.0625L133.744 42.4196L133.745 42.4208L134.094 42.0625ZM131.406 19.9375L131.855 20.1583L131.856 20.1569L131.406 19.9375ZM136.969 13.75L137.226 14.1787L137.227 14.1781L136.969 13.75ZM156.125 15.9375L155.755 16.2734L155.756 16.2749L156.125 15.9375ZM160.125 32.0312V32.5312H160.625V32.0312H160.125ZM138.594 32.0312V31.5312H138.023L138.098 32.0967L138.594 32.0312ZM141.219 37.3438L140.881 37.7128L140.884 37.7151L141.219 37.3438ZM154.969 35.5625L155.342 35.2294L154.942 34.7819L154.574 35.2558L154.969 35.5625ZM159.406 40.5312L159.815 40.8198L160.044 40.4949L159.779 40.1982L159.406 40.5312ZM153.906 45.0312L154.115 45.4856L154.118 45.484L153.906 45.0312ZM140.812 20.6875L140.447 20.3468L140.443 20.3502L140.812 20.6875ZM138.688 25.875L138.192 25.8062L138.113 26.375H138.688V25.875ZM151.25 25.875V26.375H151.75V25.875H151.25ZM151.25 25.1562H151.75L151.75 25.1458L151.25 25.1562ZM149.625 20.5312L149.261 20.8744L149.265 20.8778L149.625 20.5312ZM146.219 46.125C141.371 46.125 137.461 44.6423 134.442 41.7042L133.745 42.4208C136.976 45.566 141.149 47.125 146.219 47.125V46.125ZM134.444 41.7054C131.451 38.7733 129.938 34.8584 129.938 29.9062H128.938C128.938 35.0791 130.528 39.2684 133.744 42.4196L134.444 41.7054ZM129.938 29.9062V29.0312H128.938V29.9062H129.938ZM129.938 29.0312C129.938 25.701 130.581 22.7471 131.855 20.1583L130.958 19.7167C129.607 22.4613 128.938 25.5698 128.938 29.0312H129.938ZM131.856 20.1569C133.129 17.5499 134.919 15.563 137.226 14.1787L136.712 13.3213C134.227 14.812 132.309 16.9501 130.957 19.7181L131.856 20.1569ZM137.227 14.1781C139.559 12.7711 142.218 12.0625 145.219 12.0625V11.0625C142.053 11.0625 139.212 11.8122 136.71 13.3219L137.227 14.1781ZM145.219 12.0625C149.73 12.0625 153.22 13.4797 155.755 16.2734L156.495 15.6016C153.738 12.562 149.958 11.0625 145.219 11.0625V12.0625ZM155.756 16.2749C158.312 19.0709 159.625 23.0695 159.625 28.3438H160.625C160.625 22.9096 159.271 18.6374 156.494 15.6001L155.756 16.2749ZM159.625 28.3438V32.0312H160.625V28.3438H159.625ZM160.125 31.5312H138.594V32.5312H160.125V31.5312ZM138.098 32.0967C138.403 34.4059 139.325 36.2899 140.881 37.7128L141.556 36.9747C140.196 35.7309 139.368 34.0732 139.089 31.9658L138.098 32.0967ZM140.884 37.7151C142.467 39.1421 144.456 39.8438 146.812 39.8438V38.8438C144.669 38.8438 142.929 38.2121 141.554 36.9724L140.884 37.7151ZM146.812 39.8438C150.43 39.8438 153.301 38.5241 155.364 35.8692L154.574 35.2558C152.72 37.6426 150.153 38.8438 146.812 38.8438V39.8438ZM154.596 35.8956L159.033 40.8643L159.779 40.1982L155.342 35.2294L154.596 35.8956ZM158.998 40.2427C157.698 42.0824 155.935 43.5286 153.694 44.5785L154.118 45.484C156.502 44.3672 158.406 42.8134 159.815 40.8198L158.998 40.2427ZM153.698 44.5769C151.457 45.6063 148.967 46.125 146.219 46.125V47.125C149.096 47.125 151.73 46.5812 154.115 45.4856L153.698 44.5769ZM145.188 18.375C143.27 18.375 141.675 19.0276 140.447 20.3468L141.178 21.0282C142.2 19.9307 143.521 19.375 145.188 19.375V18.375ZM140.443 20.3502C139.249 21.6571 138.513 23.4937 138.192 25.8062L139.183 25.9438C139.487 23.7563 140.167 22.1346 141.182 21.0248L140.443 20.3502ZM138.688 26.375H151.25V25.375H138.688V26.375ZM151.75 25.875V25.1562H150.75V25.875H151.75ZM151.75 25.1458C151.706 23.0627 151.14 21.3851 149.985 20.1847L149.265 20.8778C150.194 21.844 150.71 23.2498 150.75 25.1667L151.75 25.1458ZM149.989 20.1881C148.829 18.959 147.203 18.375 145.188 18.375V19.375C147.005 19.375 148.338 19.8952 149.261 20.8744L149.989 20.1881ZM173.594 12.1875L174.092 12.1516L174.059 11.6875H173.594V12.1875ZM173.875 16.0938L173.376 16.1297L173.468 17.4029L174.265 16.4061L173.875 16.0938ZM191.594 14.7188L191.978 14.399L191.594 14.7188ZM194.281 24.1562H194.781L194.781 24.1513L194.281 24.1562ZM194.281 46V46.5H194.781V46H194.281ZM185.25 46H184.75V46.5H185.25V46ZM184 20.2188L183.638 20.5636L183.642 20.5679L184 20.2188ZM174.125 22.1562L173.694 21.9033L173.625 22.0204V22.1562H174.125ZM174.125 46V46.5H174.625V46H174.125ZM165.094 46H164.594V46.5H165.094V46ZM165.094 12.1875V11.6875H164.594V12.1875H165.094ZM173.095 12.2234L173.376 16.1297L174.374 16.0578L174.092 12.1516L173.095 12.2234ZM174.265 16.4061C176.582 13.5106 179.674 12.0625 183.594 12.0625V11.0625C179.388 11.0625 176.001 12.6353 173.485 15.7814L174.265 16.4061ZM183.594 12.0625C187.078 12.0625 189.582 13.0816 191.209 15.0385L191.978 14.399C190.106 12.1475 187.276 11.0625 183.594 11.0625V12.0625ZM191.209 15.0385C192.856 17.0179 193.74 20.0307 193.781 24.1612L194.781 24.1513C194.739 19.9068 193.832 16.6279 191.978 14.399L191.209 15.0385ZM193.781 24.1562V46H194.781V24.1562H193.781ZM194.281 45.5H185.25V46.5H194.281V45.5ZM185.75 46V24.375H184.75V46H185.75ZM185.75 24.375C185.75 22.4036 185.324 20.8601 184.358 19.8696L183.642 20.5679C184.342 21.2858 184.75 22.5131 184.75 24.375H185.75ZM184.362 19.8739C183.391 18.8539 181.838 18.4062 179.844 18.4062V19.4062C181.724 19.4062 182.943 19.8336 183.638 20.5636L184.362 19.8739ZM179.844 18.4062C177.127 18.4062 175.056 19.5814 173.694 21.9033L174.556 22.4092C175.736 20.3978 177.477 19.4062 179.844 19.4062V18.4062ZM173.625 22.1562V46H174.625V22.1562H173.625ZM174.125 45.5H165.094V46.5H174.125V45.5ZM165.594 46V12.1875H164.594V46H165.594ZM165.094 12.6875H173.594V11.6875H165.094V12.6875Z" fill="black"/>
</g>
<defs>
<filter id="filter0_d" x="0.0625" y="0" width="203.719" height="55.125" filterUnits="userSpaceOnUse" color-interpolation-filters="sRGB">
<feFlood flood-opacity="0" result="BackgroundImageFix"/>
<feColorMatrix in="SourceAlpha" type="matrix" values="0 0 0 0 0 0 0 0 0 0 0 0 0 0 0 0 0 0 127 0"/>
<feOffset dx="5" dy="4"/>
<feGaussianBlur stdDeviation="2"/>
<feColorMatrix type="matrix" values="0 0 0 0 0 0 0 0 0 0 0 0 0 0 0 0 0 0 0.5 0"/>
<feBlend mode="normal" in2="BackgroundImageFix" result="effect1_dropShadow"/>
<feBlend mode="normal" in="SourceGraphic" in2="effect1_dropShadow" result="shape"/>
</filter>
</defs>
</svg>
