<svg width="330" height="56" viewBox="0 0 330 56" fill="none" xmlns="http://www.w3.org/2000/svg">
<g filter="url(#filter0_d)">
<path d="M12.875 38.7188H29.4062V46H1.34375V40.5L17.25 19.5H1.8125V12.1875H28.9062V17.5312L12.875 38.7188ZM55.3125 42.5625C53.0833 45.2708 50 46.625 46.0625 46.625C42.4375 46.625 39.6667 45.5833 37.75 43.5C35.8542 41.4167 34.8854 38.3646 34.8438 34.3438V12.1875H43.875V34.0312C43.875 37.5521 45.4792 39.3125 48.6875 39.3125C51.75 39.3125 53.8542 38.25 55 36.125V12.1875H64.0625V46H55.5625L55.3125 42.5625ZM79.3438 12.1875L79.625 15.9688C82.0208 13.0312 85.2604 11.5625 89.3438 11.5625C93.6979 11.5625 96.6875 13.2812 98.3125 16.7188C100.688 13.2812 104.073 11.5625 108.469 11.5625C112.135 11.5625 114.865 12.6354 116.656 14.7812C118.448 16.9062 119.344 20.1146 119.344 24.4062V46H110.281V24.4375C110.281 22.5208 109.906 21.125 109.156 20.25C108.406 19.3542 107.083 18.9062 105.188 18.9062C102.479 18.9062 100.604 20.1979 99.5625 22.7812L99.5938 46H90.5625V24.4688C90.5625 22.5104 90.1771 21.0938 89.4062 20.2188C88.6354 19.3438 87.3229 18.9062 85.4688 18.9062C82.9062 18.9062 81.0521 19.9688 79.9062 22.0938V46H70.875V12.1875H79.3438ZM170.219 27.4062H152.219V46H142.844V0.5H172.469V8.09375H152.219V19.8438H170.219V27.4062ZM175.219 28.7812C175.219 25.4271 175.865 22.4375 177.156 19.8125C178.448 17.1875 180.302 15.1562 182.719 13.7188C185.156 12.2812 187.979 11.5625 191.188 11.5625C195.75 11.5625 199.469 12.9583 202.344 15.75C205.24 18.5417 206.854 22.3333 207.188 27.125L207.25 29.4375C207.25 34.625 205.802 38.7917 202.906 41.9375C200.01 45.0625 196.125 46.625 191.25 46.625C186.375 46.625 182.479 45.0625 179.562 41.9375C176.667 38.8125 175.219 34.5625 175.219 29.1875V28.7812ZM184.25 29.4375C184.25 32.6458 184.854 35.1042 186.062 36.8125C187.271 38.5 189 39.3438 191.25 39.3438C193.438 39.3438 195.146 38.5104 196.375 36.8438C197.604 35.1562 198.219 32.4688 198.219 28.7812C198.219 25.6354 197.604 23.1979 196.375 21.4688C195.146 19.7396 193.417 18.875 191.188 18.875C188.979 18.875 187.271 19.7396 186.062 21.4688C184.854 23.1771 184.25 25.8333 184.25 29.4375ZM231.812 20.6562C230.583 20.4896 229.5 20.4062 228.562 20.4062C225.146 20.4062 222.906 21.5625 221.844 23.875V46H212.812V12.1875H221.344L221.594 16.2188C223.406 13.1146 225.917 11.5625 229.125 11.5625C230.125 11.5625 231.062 11.6979 231.938 11.9688L231.812 20.6562ZM256.438 42.5625C254.208 45.2708 251.125 46.625 247.188 46.625C243.562 46.625 240.792 45.5833 238.875 43.5C236.979 41.4167 236.01 38.3646 235.969 34.3438V12.1875H245V34.0312C245 37.5521 246.604 39.3125 249.812 39.3125C252.875 39.3125 254.979 38.25 256.125 36.125V12.1875H265.188V46H256.688L256.438 42.5625ZM280.469 12.1875L280.75 15.9688C283.146 13.0312 286.385 11.5625 290.469 11.5625C294.823 11.5625 297.812 13.2812 299.438 16.7188C301.812 13.2812 305.198 11.5625 309.594 11.5625C313.26 11.5625 315.99 12.6354 317.781 14.7812C319.573 16.9062 320.469 20.1146 320.469 24.4062V46H311.406V24.4375C311.406 22.5208 311.031 21.125 310.281 20.25C309.531 19.3542 308.208 18.9062 306.312 18.9062C303.604 18.9062 301.729 20.1979 300.688 22.7812L300.719 46H291.688V24.4688C291.688 22.5104 291.302 21.0938 290.531 20.2188C289.76 19.3438 288.448 18.9062 286.594 18.9062C284.031 18.9062 282.177 19.9688 281.031 22.0938V46H272V12.1875H280.469Z" fill="#F2994A"/>
<path d="M12.875 38.7188L12.4763 38.4171L11.8697 39.2188H12.875V38.7188ZM29.4062 38.7188H29.9062V38.2188H29.4062V38.7188ZM29.4062 46V46.5H29.9062V46H29.4062ZM1.34375 46H0.84375V46.5H1.34375V46ZM1.34375 40.5L0.945179 40.1981L0.84375 40.332V40.5H1.34375ZM17.25 19.5L17.6486 19.8019L18.256 19H17.25V19.5ZM1.8125 19.5H1.3125V20H1.8125V19.5ZM1.8125 12.1875V11.6875H1.3125V12.1875H1.8125ZM28.9062 12.1875H29.4062V11.6875H28.9062V12.1875ZM28.9062 17.5312L29.305 17.8329L29.4062 17.6991V17.5312H28.9062ZM12.875 39.2188H29.4062V38.2188H12.875V39.2188ZM28.9062 38.7188V46H29.9062V38.7188H28.9062ZM29.4062 45.5H1.34375V46.5H29.4062V45.5ZM1.84375 46V40.5H0.84375V46H1.84375ZM1.74232 40.8019L17.6486 19.8019L16.8514 19.1981L0.945179 40.1981L1.74232 40.8019ZM17.25 19H1.8125V20H17.25V19ZM2.3125 19.5V12.1875H1.3125V19.5H2.3125ZM1.8125 12.6875H28.9062V11.6875H1.8125V12.6875ZM28.4062 12.1875V17.5312H29.4062V12.1875H28.4062ZM28.5075 17.2296L12.4763 38.4171L13.2737 39.0204L29.305 17.8329L28.5075 17.2296ZM55.3125 42.5625L55.8112 42.5262L55.7205 41.28L54.9265 42.2448L55.3125 42.5625ZM37.75 43.5L37.3802 43.8365L37.382 43.8385L37.75 43.5ZM34.8438 34.3438H34.3437L34.3438 34.3489L34.8438 34.3438ZM34.8438 12.1875V11.6875H34.3438V12.1875H34.8438ZM43.875 12.1875H44.375V11.6875H43.875V12.1875ZM55 36.125L55.4401 36.3623L55.5 36.2512V36.125H55ZM55 12.1875V11.6875H54.5V12.1875H55ZM64.0625 12.1875H64.5625V11.6875H64.0625V12.1875ZM64.0625 46V46.5H64.5625V46H64.0625ZM55.5625 46L55.0638 46.0363L55.0975 46.5H55.5625V46ZM54.9265 42.2448C52.8047 44.8226 49.8712 46.125 46.0625 46.125V47.125C50.1288 47.125 53.362 45.719 55.6985 42.8802L54.9265 42.2448ZM46.0625 46.125C42.5357 46.125 39.915 45.1148 38.118 43.1615L37.382 43.8385C39.4183 46.0519 42.3393 47.125 46.0625 47.125V46.125ZM38.1198 43.1635C36.3359 41.2031 35.3847 38.2887 35.3437 34.3386L34.3438 34.3489C34.3862 38.4405 35.3725 41.6302 37.3802 43.8365L38.1198 43.1635ZM35.3438 34.3438V12.1875H34.3438V34.3438H35.3438ZM34.8438 12.6875H43.875V11.6875H34.8438V12.6875ZM43.375 12.1875V34.0312H44.375V12.1875H43.375ZM43.375 34.0312C43.375 35.8578 43.7901 37.3211 44.7085 38.329C45.635 39.3457 46.9937 39.8125 48.6875 39.8125V38.8125C47.173 38.8125 46.1254 38.3991 45.4477 37.6554C44.762 36.9029 44.375 35.7255 44.375 34.0312H43.375ZM48.6875 39.8125C51.8759 39.8125 54.1826 38.6944 55.4401 36.3623L54.5599 35.8877C53.5258 37.8056 51.6241 38.8125 48.6875 38.8125V39.8125ZM55.5 36.125V12.1875H54.5V36.125H55.5ZM55 12.6875H64.0625V11.6875H55V12.6875ZM63.5625 12.1875V46H64.5625V12.1875H63.5625ZM64.0625 45.5H55.5625V46.5H64.0625V45.5ZM56.0612 45.9637L55.8112 42.5262L54.8138 42.5988L55.0638 46.0363L56.0612 45.9637ZM79.3438 12.1875L79.8424 12.1504L79.8079 11.6875H79.3438V12.1875ZM79.625 15.9688L79.1264 16.0058L79.2194 17.2571L80.0125 16.2848L79.625 15.9688ZM98.3125 16.7188L97.8605 16.9324L98.231 17.7163L98.7239 17.003L98.3125 16.7188ZM116.656 14.7812L116.272 15.1017L116.274 15.1035L116.656 14.7812ZM119.344 46V46.5H119.844V46H119.344ZM110.281 46H109.781V46.5H110.281V46ZM109.156 20.25L108.773 20.571L108.777 20.5754L109.156 20.25ZM99.5625 22.7812L99.0988 22.5943L99.0624 22.6846L99.0625 22.7819L99.5625 22.7812ZM99.5938 46V46.5H100.094L100.094 45.9993L99.5938 46ZM90.5625 46H90.0625V46.5H90.5625V46ZM79.9062 22.0938L79.4662 21.8564L79.4062 21.9675V22.0938H79.9062ZM79.9062 46V46.5H80.4062V46H79.9062ZM70.875 46H70.375V46.5H70.875V46ZM70.875 12.1875V11.6875H70.375V12.1875H70.875ZM78.8451 12.2246L79.1264 16.0058L80.1236 15.9317L79.8424 12.1504L78.8451 12.2246ZM80.0125 16.2848C82.3053 13.4736 85.3974 12.0625 89.3438 12.0625V11.0625C85.1234 11.0625 81.7364 12.5889 79.2375 15.6527L80.0125 16.2848ZM89.3438 12.0625C91.456 12.0625 93.2008 12.4793 94.6024 13.285C95.9997 14.0884 97.0869 15.296 97.8605 16.9324L98.7645 16.5051C97.9131 14.704 96.693 13.3335 95.1008 12.4181C93.5127 11.5051 91.5857 11.0625 89.3438 11.0625V12.0625ZM98.7239 17.003C101 13.7087 104.227 12.0625 108.469 12.0625V11.0625C103.919 11.0625 100.375 12.8538 97.9011 16.4345L98.7239 17.003ZM108.469 12.0625C112.037 12.0625 114.603 13.1028 116.272 15.1017L117.04 14.4608C115.126 12.168 112.234 11.0625 108.469 11.0625V12.0625ZM116.274 15.1035C117.958 17.1006 118.844 20.1714 118.844 24.4062H119.844C119.844 20.0578 118.938 16.7119 117.039 14.459L116.274 15.1035ZM118.844 24.4062V46H119.844V24.4062H118.844ZM119.344 45.5H110.281V46.5H119.344V45.5ZM110.781 46V24.4375H109.781V46H110.781ZM110.781 24.4375C110.781 22.4748 110.401 20.9336 109.536 19.9246L108.777 20.5754C109.412 21.3164 109.781 22.5669 109.781 24.4375H110.781ZM109.54 19.929C108.649 18.8649 107.141 18.4062 105.188 18.4062V19.4062C107.026 19.4062 108.164 19.8434 108.773 20.571L109.54 19.929ZM105.188 18.4062C103.752 18.4062 102.502 18.7497 101.466 19.4632C100.432 20.176 99.648 21.2321 99.0988 22.5943L100.026 22.9682C100.519 21.747 101.193 20.8656 102.034 20.2868C102.873 19.7086 103.915 19.4062 105.188 19.4062V18.4062ZM99.0625 22.7819L99.0938 46.0007L100.094 45.9993L100.062 22.7806L99.0625 22.7819ZM99.5938 45.5H90.5625V46.5H99.5938V45.5ZM91.0625 46V24.4688H90.0625V46H91.0625ZM91.0625 24.4688C91.0625 22.4652 90.6719 20.8991 89.7814 19.8882L89.0311 20.5493C89.6822 21.2884 90.0625 22.5556 90.0625 24.4688H91.0625ZM89.7814 19.8882C88.8718 18.8557 87.3831 18.4062 85.4688 18.4062V19.4062C87.2627 19.4062 88.399 19.8318 89.0311 20.5493L89.7814 19.8882ZM85.4688 18.4062C84.1177 18.4062 82.9242 18.6868 81.9077 19.2693C80.8895 19.8527 80.0774 20.7228 79.4662 21.8564L80.3463 22.3311C80.8809 21.3397 81.5688 20.616 82.4048 20.1369C83.2425 19.657 84.2573 19.4062 85.4688 19.4062V18.4062ZM79.4062 22.0938V46H80.4062V22.0938H79.4062ZM79.9062 45.5H70.875V46.5H79.9062V45.5ZM71.375 46V12.1875H70.375V46H71.375ZM70.875 12.6875H79.3438V11.6875H70.875V12.6875ZM170.219 27.4062V27.9062H170.719V27.4062H170.219ZM152.219 27.4062V26.9062H151.719V27.4062H152.219ZM152.219 46V46.5H152.719V46H152.219ZM142.844 46H142.344V46.5H142.844V46ZM142.844 0.5V0H142.344V0.5H142.844ZM172.469 0.5H172.969V0H172.469V0.5ZM172.469 8.09375V8.59375H172.969V8.09375H172.469ZM152.219 8.09375V7.59375H151.719V8.09375H152.219ZM152.219 19.8438H151.719V20.3438H152.219V19.8438ZM170.219 19.8438H170.719V19.3438H170.219V19.8438ZM170.219 26.9062H152.219V27.9062H170.219V26.9062ZM151.719 27.4062V46H152.719V27.4062H151.719ZM152.219 45.5H142.844V46.5H152.219V45.5ZM143.344 46V0.5H142.344V46H143.344ZM142.844 1H172.469V0H142.844V1ZM171.969 0.5V8.09375H172.969V0.5H171.969ZM172.469 7.59375H152.219V8.59375H172.469V7.59375ZM151.719 8.09375V19.8438H152.719V8.09375H151.719ZM152.219 20.3438H170.219V19.3438H152.219V20.3438ZM169.719 19.8438V27.4062H170.719V19.8438H169.719ZM177.156 19.8125L176.708 19.5917L177.156 19.8125ZM182.719 13.7188L182.465 13.2881L182.463 13.289L182.719 13.7188ZM202.344 15.75L201.995 16.1087L201.997 16.11L202.344 15.75ZM207.188 27.125L207.687 27.1115L207.687 27.1009L207.686 27.0903L207.188 27.125ZM207.25 29.4375H207.75L207.75 29.424L207.25 29.4375ZM202.906 41.9375L203.273 42.2774L203.274 42.2761L202.906 41.9375ZM179.562 41.9375L179.196 42.2774L179.197 42.2787L179.562 41.9375ZM186.062 36.8125L185.654 37.1012L185.656 37.1036L186.062 36.8125ZM196.375 36.8438L196.777 37.1405L196.779 37.1381L196.375 36.8438ZM186.062 21.4688L186.471 21.7575L186.472 21.7551L186.062 21.4688ZM175.719 28.7812C175.719 25.4924 176.352 22.5802 177.605 20.0333L176.708 19.5917C175.378 22.2948 174.719 25.3618 174.719 28.7812H175.719ZM177.605 20.0333C178.856 17.4914 180.644 15.5344 182.974 14.1485L182.463 13.289C179.96 14.7781 178.04 16.8836 176.708 19.5917L177.605 20.0333ZM182.973 14.1494C185.323 12.7631 188.056 12.0625 191.188 12.0625V11.0625C187.902 11.0625 184.989 11.7994 182.465 13.2881L182.973 14.1494ZM191.188 12.0625C195.639 12.0625 199.227 13.4204 201.995 16.1087L202.692 15.3913C199.711 12.4963 195.861 11.0625 191.188 11.0625V12.0625ZM201.997 16.11C204.787 18.7996 206.362 22.4662 206.689 27.1597L207.686 27.0903C207.346 22.2005 205.692 18.2837 202.691 15.39L201.997 16.11ZM206.688 27.1385L206.75 29.451L207.75 29.424L207.687 27.1115L206.688 27.1385ZM206.75 29.4375C206.75 34.5277 205.332 38.5642 202.538 41.5989L203.274 42.2761C206.272 39.0192 207.75 34.7223 207.75 29.4375H206.75ZM202.54 41.5977C199.752 44.6054 196.008 46.125 191.25 46.125V47.125C196.242 47.125 200.269 45.5196 203.273 42.2773L202.54 41.5977ZM191.25 46.125C186.492 46.125 182.736 44.6054 179.928 41.5963L179.197 42.2787C182.222 45.5196 186.258 47.125 191.25 47.125V46.125ZM179.929 41.5977C177.14 38.5875 175.719 34.4708 175.719 29.1875H174.719C174.719 34.6542 176.193 39.0375 179.196 42.2773L179.929 41.5977ZM175.719 29.1875V28.7812H174.719V29.1875H175.719ZM183.75 29.4375C183.75 32.6976 184.362 35.2743 185.654 37.1012L186.471 36.5238C185.346 34.934 184.75 32.594 184.75 29.4375H183.75ZM185.656 37.1036C186.967 38.9346 188.855 39.8438 191.25 39.8438V38.8438C189.145 38.8438 187.575 38.0654 186.469 36.5214L185.656 37.1036ZM191.25 39.8438C193.586 39.8438 195.448 38.9432 196.777 37.1405L195.973 36.547C194.844 38.0777 193.289 38.8438 191.25 38.8438V39.8438ZM196.779 37.1381C198.103 35.3212 198.719 32.5029 198.719 28.7812H197.719C197.719 32.4346 197.106 34.9913 195.971 36.5494L196.779 37.1381ZM198.719 28.7812C198.719 25.5792 198.095 23.0247 196.783 21.1791L195.967 21.7584C197.114 23.3711 197.719 25.6917 197.719 28.7812H198.719ZM196.783 21.1791C195.454 19.3102 193.569 18.375 191.188 18.375V19.375C193.264 19.375 194.838 20.1689 195.967 21.7584L196.783 21.1791ZM191.188 18.375C188.825 18.375 186.96 19.3121 185.653 21.1824L186.472 21.7551C187.582 20.1671 189.133 19.375 191.188 19.375V18.375ZM185.654 21.18C184.357 23.0144 183.75 25.7965 183.75 29.4375H184.75C184.75 25.8702 185.352 23.3397 186.471 21.7575L185.654 21.18ZM231.812 20.6562L231.745 21.1517L232.304 21.2275L232.312 20.6634L231.812 20.6562ZM221.844 23.875L221.389 23.6663L221.344 23.7656V23.875H221.844ZM221.844 46V46.5H222.344V46H221.844ZM212.812 46H212.312V46.5H212.812V46ZM212.812 12.1875V11.6875H212.312V12.1875H212.812ZM221.344 12.1875L221.843 12.1566L221.814 11.6875H221.344V12.1875ZM221.594 16.2188L221.095 16.2497L221.196 17.8907L222.026 16.4709L221.594 16.2188ZM231.938 11.9688L232.437 11.9759L232.443 11.6018L232.085 11.4911L231.938 11.9688ZM231.88 20.1608C230.635 19.992 229.528 19.9062 228.562 19.9062V20.9062C229.472 20.9062 230.532 20.9872 231.745 21.1517L231.88 20.1608ZM228.562 19.9062C225.03 19.9062 222.562 21.114 221.389 23.6663L222.298 24.0837C223.25 22.011 225.262 20.9062 228.562 20.9062V19.9062ZM221.344 23.875V46H222.344V23.875H221.344ZM221.844 45.5H212.812V46.5H221.844V45.5ZM213.312 46V12.1875H212.312V46H213.312ZM212.812 12.6875H221.344V11.6875H212.812V12.6875ZM220.845 12.2184L221.095 16.2497L222.093 16.1878L221.843 12.1566L220.845 12.2184ZM222.026 16.4709C223.761 13.498 226.119 12.0625 229.125 12.0625V11.0625C225.715 11.0625 223.051 12.7312 221.162 15.9666L222.026 16.4709ZM229.125 12.0625C230.079 12.0625 230.967 12.1917 231.79 12.4464L232.085 11.4911C231.158 11.2042 230.171 11.0625 229.125 11.0625V12.0625ZM231.438 11.9616L231.313 20.6491L232.312 20.6634L232.437 11.9759L231.438 11.9616ZM256.438 42.5625L256.936 42.5262L256.846 41.28L256.051 42.2448L256.438 42.5625ZM238.875 43.5L238.505 43.8365L238.507 43.8385L238.875 43.5ZM235.969 34.3438H235.469L235.469 34.3489L235.969 34.3438ZM235.969 12.1875V11.6875H235.469V12.1875H235.969ZM245 12.1875H245.5V11.6875H245V12.1875ZM256.125 36.125L256.565 36.3623L256.625 36.2512V36.125H256.125ZM256.125 12.1875V11.6875H255.625V12.1875H256.125ZM265.188 12.1875H265.688V11.6875H265.188V12.1875ZM265.188 46V46.5H265.688V46H265.188ZM256.688 46L256.189 46.0363L256.223 46.5H256.688V46ZM256.051 42.2448C253.93 44.8226 250.996 46.125 247.188 46.125V47.125C251.254 47.125 254.487 45.719 256.824 42.8802L256.051 42.2448ZM247.188 46.125C243.661 46.125 241.04 45.1148 239.243 43.1615L238.507 43.8385C240.543 46.0519 243.464 47.125 247.188 47.125V46.125ZM239.245 43.1635C237.461 41.2031 236.51 38.2887 236.469 34.3386L235.469 34.3489C235.511 38.4405 236.497 41.6302 238.505 43.8365L239.245 43.1635ZM236.469 34.3438V12.1875H235.469V34.3438H236.469ZM235.969 12.6875H245V11.6875H235.969V12.6875ZM244.5 12.1875V34.0312H245.5V12.1875H244.5ZM244.5 34.0312C244.5 35.8578 244.915 37.3211 245.834 38.329C246.76 39.3457 248.119 39.8125 249.812 39.8125V38.8125C248.298 38.8125 247.25 38.3991 246.573 37.6554C245.887 36.9029 245.5 35.7255 245.5 34.0312H244.5ZM249.812 39.8125C253.001 39.8125 255.308 38.6944 256.565 36.3623L255.685 35.8877C254.651 37.8056 252.749 38.8125 249.812 38.8125V39.8125ZM256.625 36.125V12.1875H255.625V36.125H256.625ZM256.125 12.6875H265.188V11.6875H256.125V12.6875ZM264.688 12.1875V46H265.688V12.1875H264.688ZM265.188 45.5H256.688V46.5H265.188V45.5ZM257.186 45.9637L256.936 42.5262L255.939 42.5988L256.189 46.0363L257.186 45.9637ZM280.469 12.1875L280.967 12.1504L280.933 11.6875H280.469V12.1875ZM280.75 15.9688L280.251 16.0058L280.344 17.2571L281.137 16.2848L280.75 15.9688ZM299.438 16.7188L298.985 16.9324L299.356 17.7163L299.849 17.003L299.438 16.7188ZM317.781 14.7812L317.397 15.1017L317.399 15.1035L317.781 14.7812ZM320.469 46V46.5H320.969V46H320.469ZM311.406 46H310.906V46.5H311.406V46ZM310.281 20.25L309.898 20.571L309.902 20.5754L310.281 20.25ZM300.688 22.7812L300.224 22.5943L300.187 22.6846L300.188 22.7819L300.688 22.7812ZM300.719 46V46.5H301.219L301.219 45.9993L300.719 46ZM291.688 46H291.188V46.5H291.688V46ZM281.031 22.0938L280.591 21.8564L280.531 21.9675V22.0938H281.031ZM281.031 46V46.5H281.531V46H281.031ZM272 46H271.5V46.5H272V46ZM272 12.1875V11.6875H271.5V12.1875H272ZM279.97 12.2246L280.251 16.0058L281.249 15.9317L280.967 12.1504L279.97 12.2246ZM281.137 16.2848C283.43 13.4736 286.522 12.0625 290.469 12.0625V11.0625C286.248 11.0625 282.861 12.5889 280.363 15.6527L281.137 16.2848ZM290.469 12.0625C292.581 12.0625 294.326 12.4793 295.727 13.285C297.125 14.0884 298.212 15.296 298.985 16.9324L299.89 16.5051C299.038 14.704 297.818 13.3335 296.226 12.4181C294.638 11.5051 292.711 11.0625 290.469 11.0625V12.0625ZM299.849 17.003C302.125 13.7087 305.352 12.0625 309.594 12.0625V11.0625C305.044 11.0625 301.5 12.8538 299.026 16.4345L299.849 17.003ZM309.594 12.0625C313.162 12.0625 315.728 13.1028 317.397 15.1017L318.165 14.4608C316.251 12.168 313.359 11.0625 309.594 11.0625V12.0625ZM317.399 15.1035C319.083 17.1006 319.969 20.1714 319.969 24.4062H320.969C320.969 20.0578 320.063 16.7119 318.164 14.459L317.399 15.1035ZM319.969 24.4062V46H320.969V24.4062H319.969ZM320.469 45.5H311.406V46.5H320.469V45.5ZM311.906 46V24.4375H310.906V46H311.906ZM311.906 24.4375C311.906 22.4748 311.526 20.9336 310.661 19.9246L309.902 20.5754C310.537 21.3164 310.906 22.5669 310.906 24.4375H311.906ZM310.665 19.929C309.774 18.8649 308.266 18.4062 306.312 18.4062V19.4062C308.151 19.4062 309.289 19.8434 309.898 20.571L310.665 19.929ZM306.312 18.4062C304.877 18.4062 303.627 18.7497 302.591 19.4632C301.557 20.176 300.773 21.2321 300.224 22.5943L301.151 22.9682C301.644 21.747 302.318 20.8656 303.159 20.2868C303.998 19.7086 305.04 19.4062 306.312 19.4062V18.4062ZM300.188 22.7819L300.219 46.0007L301.219 45.9993L301.188 22.7806L300.188 22.7819ZM300.719 45.5H291.688V46.5H300.719V45.5ZM292.188 46V24.4688H291.188V46H292.188ZM292.188 24.4688C292.188 22.4652 291.797 20.8991 290.906 19.8882L290.156 20.5493C290.807 21.2884 291.188 22.5556 291.188 24.4688H292.188ZM290.906 19.8882C289.997 18.8557 288.508 18.4062 286.594 18.4062V19.4062C288.388 19.4062 289.524 19.8318 290.156 20.5493L290.906 19.8882ZM286.594 18.4062C285.243 18.4062 284.049 18.6868 283.033 19.2693C282.015 19.8527 281.202 20.7228 280.591 21.8564L281.471 22.3311C282.006 21.3397 282.694 20.616 283.53 20.1369C284.367 19.657 285.382 19.4062 286.594 19.4062V18.4062ZM280.531 22.0938V46H281.531V22.0938H280.531ZM281.031 45.5H272V46.5H281.031V45.5ZM272.5 46V12.1875H271.5V46H272.5ZM272 12.6875H280.469V11.6875H272V12.6875Z" fill="black"/>
</g>
<defs>
<filter id="filter0_d" x="0.84375" y="0" width="329.125" height="55.125" filterUnits="userSpaceOnUse" color-interpolation-filters="sRGB">
<feFlood flood-opacity="0" result="BackgroundImageFix"/>
<feColorMatrix in="SourceAlpha" type="matrix" values="0 0 0 0 0 0 0 0 0 0 0 0 0 0 0 0 0 0 127 0"/>
<feOffset dx="5" dy="4"/>
<feGaussianBlur stdDeviation="2"/>
<feColorMatrix type="matrix" values="0 0 0 0 0 0 0 0 0 0 0 0 0 0 0 0 0 0 0.5 0"/>
<feBlend mode="normal" in2="BackgroundImageFix" result="effect1_dropShadow"/>
<feBlend mode="normal" in="SourceGraphic" in2="effect1_dropShadow" result="shape"/>
</filter>
</defs>
</svg>
